<mxfile host="app.diagrams.net" modified="2023-08-26T12:44:25.191Z" agent="Mozilla/5.0 (Macintosh; Intel Mac OS X 10_15_7) AppleWebKit/537.36 (KHTML, like Gecko) Chrome/116.0.0.0 Safari/537.36" etag="EfCQy0OeUpMH2OUM6-zZ" version="21.6.9" type="github">
  <diagram id="3228e29e-7158-1315-38df-8450db1d8a1d" name="Page-1">
    <mxGraphModel dx="1413" dy="1893" grid="0" gridSize="10" guides="1" tooltips="1" connect="1" arrows="1" fold="1" page="1" pageScale="1" pageWidth="1220" pageHeight="1000" background="#EFF1F3" math="0" shadow="0">
      <root>
        <mxCell id="0" />
        <mxCell id="1" parent="0" />
        <mxCell id="T-5VQnCJckOgUX1Wp16H-28" value="&lt;font style=&quot;font-size: 30px;&quot; color=&quot;#4a919b&quot;&gt;客户端&lt;/font&gt;" style="text;html=1;strokeColor=none;fillColor=none;align=center;verticalAlign=middle;whiteSpace=wrap;rounded=0;fontSize=22;" parent="1" vertex="1">
          <mxGeometry x="286.76" y="231.16" width="106.52" height="20" as="geometry" />
        </mxCell>
        <mxCell id="aH1-eks404bDhsACtXEq-3" value="&lt;font color=&quot;#535e80&quot; style=&quot;font-size: 30px;&quot;&gt;服务端&lt;/font&gt;" style="text;html=1;strokeColor=none;fillColor=none;align=center;verticalAlign=middle;whiteSpace=wrap;rounded=0;fontSize=22;" parent="1" vertex="1">
          <mxGeometry x="713" y="231.16" width="179" height="20" as="geometry" />
        </mxCell>
        <mxCell id="TGPx2V8O0Z7DVdudsgvW-3" value="" style="shape=image;verticalLabelPosition=bottom;verticalAlign=top;imageAspect=0;aspect=fixed;image=data:image/svg+xml,PHN2ZyB4bWxuczp4bGluaz0iaHR0cDovL3d3dy53My5vcmcvMTk5OS94bGluayIgeG1sbnM9Imh0dHA6Ly93d3cudzMub3JnLzIwMDAvc3ZnIiBoZWlnaHQ9IjIwMCIgd2lkdGg9IjIwMCIgdmVyc2lvbj0iMS4xIiB2aWV3Qm94PSIwIDAgMTAyNCAxMDI0IiBjbGFzcz0iaWNvbiI+PGRlZnM+PHN0eWxlIHR5cGU9InRleHQvY3NzIj5AZm9udC1mYWNlIHsgZm9udC1mYW1pbHk6IGZlZWRiYWNrLWljb25mb250OyBzcmM6IHVybCgiLy9hdC5hbGljZG4uY29tL3QvZm9udF8xMDMxMTU4X3U2OXc4eWh4ZHUud29mZjI/dD0xNjMwMDMzNzU5OTQ0IikgZm9ybWF0KCJ3b2ZmMiIpLCB1cmwoIi8vYXQuYWxpY2RuLmNvbS90L2ZvbnRfMTAzMTE1OF91Njl3OHloeGR1LndvZmY/dD0xNjMwMDMzNzU5OTQ0IikgZm9ybWF0KCJ3b2ZmIiksIHVybCgiLy9hdC5hbGljZG4uY29tL3QvZm9udF8xMDMxMTU4X3U2OXc4eWh4ZHUudHRmP3Q9MTYzMDAzMzc1OTk0NCIpIGZvcm1hdCgidHJ1ZXR5cGUiKTsgfSYjeGE7PC9zdHlsZT48L2RlZnM+PHBhdGggZmlsbD0iIzRBOTE5QiIgZD0iTTg0Mi4zOTQ1OTUgNzk5LjczMzIzNyA2NDAuOTczMDc2IDc5OS43MzMyMzcgNjQwLjk3MzA3NiA5MTQuODI1NTA4bDU3LjU0OTAwNSAwYzE1LjkwMzg1MyAwIDI4Ljc3NDUwMyAxMi44NjkwOTkgMjguNzc0NTAzIDI4Ljc3MzMyNCAwIDE1LjkwMzIwMi0xMi44NzA2NDkgMjguNzcyMy0yOC43NzQ1MDMgMjguNzcyM0wzNTMuMjI4MDUgOTcyLjM3MTEzMmMtMTUuOTA0ODc3IDAtMjguNzc0NTAzLTEyLjg2OTA5OS0yOC43NzQ1MDMtMjguNzcyMyAwLTE1LjkwNDIyNSAxMi44Njk2MjYtMjguNzczMzI0IDI4Ljc3NDUwMy0yOC43NzMzMjRsNTcuNTQ5MDA1IDBMNDEwLjc3NzA1NSA3OTkuNzMzMjM3IDE4MC41ODEwMzQgNzk5LjczMzIzN2MtNjMuNTYyMTk5IDAtMTE1LjA5ODAxMS01MS41MzM3LTExNS4wOTgwMTEtMTE1LjA5MzI5NUw2NS40ODMwMjMgMTY2LjcyMDExNmMwLTYzLjU1OTU5NSA1MS41MzU4MTItMTE1LjA5MzI5NSAxMTUuMDk4MDExLTExNS4wOTMyOTVsNjYxLjgxMjUzNyAwYzYzLjU2MTE3NiAwIDExNS4wOTgwMTEgNTEuNTMzNyAxMTUuMDk4MDExIDExNS4wOTMyOTVsMCA1MTcuOTE5ODI2Qzk1Ny40OTE1ODIgNzQ4LjE5ODUxMyA5MDUuOTU1NzcgNzk5LjczMzIzNyA4NDIuMzk0NTk1IDc5OS43MzMyMzd6TTU4My40MjQwNzEgOTE0LjgyNTUwOCA1ODMuNDI0MDcxIDc5OS43MzMyMzcgNDY4LjMyNjA2IDc5OS43MzMyMzcgNDY4LjMyNjA2IDkxNC44MjU1MDggNTgzLjQyNDA3MSA5MTQuODI1NTA4ek04OTkuOTQyNTc3IDE2Ni43MjAxMTZjMC0zMS43Nzk3OTctMjUuNzY3OTA2LTU3LjU0NjY0Ny01Ny41NDc5ODItNTcuNTQ2NjQ3TDE4MC41ODEwMzQgMTA5LjE3MzQ2OGMtMzEuNzgxMDk5IDAtNTcuNTQ5MDA1IDI1Ljc2Njg1LTU3LjU0OTAwNSA1Ny41NDY2NDdsMCA0MDIuODI2NTMyTDg5OS45NDI1NzcgNTY5LjU0NjY0NyA4OTkuOTQyNTc3IDE2Ni43MjAxMTZ6TTg5OS45NDI1NzcgNjI3LjA5MzI5NSAxMjMuMDMzMDUyIDYyNy4wOTMyOTVsMCA1Ny41NDY2NDdjMCAzMS43Nzk3OTcgMjUuNzY3OTA2IDU3LjU0NTYyNCA1Ny41NDkwMDUgNTcuNTQ1NjI0bDY2MS44MTI1MzcgMGMzMS43ODEwOTkgMCA1Ny41NDc5ODItMjUuNzY2ODUgNTcuNTQ3OTgyLTU3LjU0NTYyNEw4OTkuOTQyNTc3IDYyNy4wOTMyOTV6Ii8+PC9zdmc+" parent="1" vertex="1">
          <mxGeometry x="268" y="79.62000000000003" width="144.04" height="144.04" as="geometry" />
        </mxCell>
        <mxCell id="TGPx2V8O0Z7DVdudsgvW-17" value="" style="rounded=1;whiteSpace=wrap;html=1;strokeColor=#000000;fillColor=#FCFBF8;" parent="1" vertex="1">
          <mxGeometry x="281" y="283.58000000000004" width="602" height="165" as="geometry" />
        </mxCell>
        <mxCell id="TGPx2V8O0Z7DVdudsgvW-19" value="" style="shape=image;verticalLabelPosition=bottom;verticalAlign=top;imageAspect=0;aspect=fixed;image=data:image/svg+xml,PHN2ZyB4bWxuczp4bGluaz0iaHR0cDovL3d3dy53My5vcmcvMTk5OS94bGluayIgeG1sbnM9Imh0dHA6Ly93d3cudzMub3JnLzIwMDAvc3ZnIiBoZWlnaHQ9IjIwMCIgd2lkdGg9IjIwMCIgdmVyc2lvbj0iMS4xIiB2aWV3Qm94PSIwIDAgMTAyNCAxMDI0IiBjbGFzcz0iaWNvbiI+PHBhdGggZmlsbD0iIzRBOTE5QiIgZD0iTTMxMi44ODg4ODkgOTk1LjU1NTU1NmMtMTcuMDY2NjY3IDAtMjguNDQ0NDQ0LTUuNjg4ODg5LTM5LjgyMjIyMi0xNy4wNjY2NjctMjIuNzU1NTU2LTIyLjc1NTU1Ni0xNy4wNjY2NjctNTYuODg4ODg5IDUuNjg4ODg5LTc5LjY0NDQ0NWwzNjQuMDg4ODg4LTMyOS45NTU1NTVjMTEuMzc3Nzc4LTExLjM3Nzc3OCAxNy4wNjY2NjctMjIuNzU1NTU2IDE3LjA2NjY2Ny0zNC4xMzMzMzMgMC0xMS4zNzc3NzgtNS42ODg4ODktMjIuNzU1NTU2LTE3LjA2NjY2Ny0zNC4xMzMzMzRMMjczLjA2NjY2NyAxODcuNzMzMzMzYy0yMi43NTU1NTYtMjIuNzU1NTU2LTI4LjQ0NDQ0NC01Ni44ODg4ODktNS42ODg4ODktNzkuNjQ0NDQ0IDIyLjc1NTU1Ni0yMi43NTU1NTYgNTYuODg4ODg5LTI4LjQ0NDQ0NCA3OS42NDQ0NDQtNS42ODg4ODlsMzY0LjA4ODg4OSAzMTIuODg4ODg5YzM0LjEzMzMzMyAyOC40NDQ0NDQgNTYuODg4ODg5IDczLjk1NTU1NiA1Ni44ODg4ODkgMTE5LjQ2NjY2N3MtMTcuMDY2NjY3IDg1LjMzMzMzMy01MS4yIDExOS40NjY2NjZsLTM2NC4wODg4ODkgMzI5Ljk1NTU1NmMtMTEuMzc3Nzc4IDUuNjg4ODg5LTI4LjQ0NDQ0NCAxMS4zNzc3NzgtMzkuODIyMjIyIDExLjM3Nzc3OHoiLz48L3N2Zz4=" parent="1" vertex="1">
          <mxGeometry x="555" y="346.58000000000004" width="54" height="54" as="geometry" />
        </mxCell>
        <mxCell id="TGPx2V8O0Z7DVdudsgvW-20" value="" style="rounded=1;whiteSpace=wrap;html=1;strokeColor=default;fillColor=#E7E5ED;" parent="1" vertex="1">
          <mxGeometry x="281" y="448.58000000000004" width="602" height="176" as="geometry" />
        </mxCell>
        <mxCell id="TGPx2V8O0Z7DVdudsgvW-26" value="&lt;span style=&quot;font-size: 28px;&quot;&gt;1.客户端登录请求&lt;br&gt;&lt;/span&gt;" style="text;html=1;strokeColor=none;fillColor=none;align=center;verticalAlign=middle;whiteSpace=wrap;rounded=0;fontColor=#4A919B;" parent="1" vertex="1">
          <mxGeometry x="320.15999999999997" y="310.00000000000006" width="230" height="30" as="geometry" />
        </mxCell>
        <mxCell id="TGPx2V8O0Z7DVdudsgvW-31" value="" style="shape=image;verticalLabelPosition=bottom;verticalAlign=top;imageAspect=0;aspect=fixed;image=data:image/svg+xml,PHN2ZyB4bWxuczp4bGluaz0iaHR0cDovL3d3dy53My5vcmcvMTk5OS94bGluayIgeG1sbnM9Imh0dHA6Ly93d3cudzMub3JnLzIwMDAvc3ZnIiBoZWlnaHQ9IjIwMCIgd2lkdGg9IjIwMCIgdmVyc2lvbj0iMS4xIiB2aWV3Qm94PSIwIDAgMTAyNCAxMDI0IiBjbGFzcz0iaWNvbiI+PHBhdGggZmlsbD0iIzUzNUU4MCIgZD0iTTMxMi44ODg4ODkgOTk1LjU1NTU1NmMtMTcuMDY2NjY3IDAtMjguNDQ0NDQ0LTUuNjg4ODg5LTM5LjgyMjIyMi0xNy4wNjY2NjctMjIuNzU1NTU2LTIyLjc1NTU1Ni0xNy4wNjY2NjctNTYuODg4ODg5IDUuNjg4ODg5LTc5LjY0NDQ0NWwzNjQuMDg4ODg4LTMyOS45NTU1NTVjMTEuMzc3Nzc4LTExLjM3Nzc3OCAxNy4wNjY2NjctMjIuNzU1NTU2IDE3LjA2NjY2Ny0zNC4xMzMzMzMgMC0xMS4zNzc3NzgtNS42ODg4ODktMjIuNzU1NTU2LTE3LjA2NjY2Ny0zNC4xMzMzMzRMMjczLjA2NjY2NyAxODcuNzMzMzMzYy0yMi43NTU1NTYtMjIuNzU1NTU2LTI4LjQ0NDQ0NC01Ni44ODg4ODktNS42ODg4ODktNzkuNjQ0NDQ0IDIyLjc1NTU1Ni0yMi43NTU1NTYgNTYuODg4ODg5LTI4LjQ0NDQ0NCA3OS42NDQ0NDQtNS42ODg4ODlsMzY0LjA4ODg4OSAzMTIuODg4ODg5YzM0LjEzMzMzMyAyOC40NDQ0NDQgNTYuODg4ODg5IDczLjk1NTU1NiA1Ni44ODg4ODkgMTE5LjQ2NjY2N3MtMTcuMDY2NjY3IDg1LjMzMzMzMy01MS4yIDExOS40NjY2NjZsLTM2NC4wODg4ODkgMzI5Ljk1NTU1NmMtMTEuMzc3Nzc4IDUuNjg4ODg5LTI4LjQ0NDQ0NCAxMS4zNzc3NzgtMzkuODIyMjIyIDExLjM3Nzc3OHoiLz48L3N2Zz4=;flipH=1;" parent="1" vertex="1">
          <mxGeometry x="548" y="506.58000000000004" width="55" height="55" as="geometry" />
        </mxCell>
        <mxCell id="TGPx2V8O0Z7DVdudsgvW-49" value="" style="rounded=1;whiteSpace=wrap;html=1;strokeColor=default;fillColor=#FCFBF8;" parent="1" vertex="1">
          <mxGeometry x="281" y="624.58" width="602" height="152" as="geometry" />
        </mxCell>
        <mxCell id="TGPx2V8O0Z7DVdudsgvW-51" value="" style="shape=image;verticalLabelPosition=bottom;verticalAlign=top;imageAspect=0;aspect=fixed;image=data:image/svg+xml,PHN2ZyB4bWxuczp4bGluaz0iaHR0cDovL3d3dy53My5vcmcvMTk5OS94bGluayIgeG1sbnM9Imh0dHA6Ly93d3cudzMub3JnLzIwMDAvc3ZnIiBoZWlnaHQ9IjIwMCIgd2lkdGg9IjIwMCIgdmVyc2lvbj0iMS4xIiB2aWV3Qm94PSIwIDAgMTAyNCAxMDI0IiBjbGFzcz0iaWNvbiI+PHBhdGggZmlsbD0iIzRBOTE5QiIgZD0iTTMxMi44ODg4ODkgOTk1LjU1NTU1NmMtMTcuMDY2NjY3IDAtMjguNDQ0NDQ0LTUuNjg4ODg5LTM5LjgyMjIyMi0xNy4wNjY2NjctMjIuNzU1NTU2LTIyLjc1NTU1Ni0xNy4wNjY2NjctNTYuODg4ODg5IDUuNjg4ODg5LTc5LjY0NDQ0NWwzNjQuMDg4ODg4LTMyOS45NTU1NTVjMTEuMzc3Nzc4LTExLjM3Nzc3OCAxNy4wNjY2NjctMjIuNzU1NTU2IDE3LjA2NjY2Ny0zNC4xMzMzMzMgMC0xMS4zNzc3NzgtNS42ODg4ODktMjIuNzU1NTU2LTE3LjA2NjY2Ny0zNC4xMzMzMzRMMjczLjA2NjY2NyAxODcuNzMzMzMzYy0yMi43NTU1NTYtMjIuNzU1NTU2LTI4LjQ0NDQ0NC01Ni44ODg4ODktNS42ODg4ODktNzkuNjQ0NDQ0IDIyLjc1NTU1Ni0yMi43NTU1NTYgNTYuODg4ODg5LTI4LjQ0NDQ0NCA3OS42NDQ0NDQtNS42ODg4ODlsMzY0LjA4ODg4OSAzMTIuODg4ODg5YzM0LjEzMzMzMyAyOC40NDQ0NDQgNTYuODg4ODg5IDczLjk1NTU1NiA1Ni44ODg4ODkgMTE5LjQ2NjY2N3MtMTcuMDY2NjY3IDg1LjMzMzMzMy01MS4yIDExOS40NjY2NjZsLTM2NC4wODg4ODkgMzI5Ljk1NTU1NmMtMTEuMzc3Nzc4IDUuNjg4ODg5LTI4LjQ0NDQ0NCAxMS4zNzc3NzgtMzkuODIyMjIyIDExLjM3Nzc3OHoiLz48L3N2Zz4=" parent="1" vertex="1">
          <mxGeometry x="550.16" y="673.58" width="54" height="54" as="geometry" />
        </mxCell>
        <mxCell id="TGPx2V8O0Z7DVdudsgvW-58" value="" style="shape=flexArrow;endArrow=classic;html=1;rounded=0;fontSize=28;fontColor=#808080;width=9.18032786885246;endSize=4.6;strokeColor=none;fillColor=#4A919B;exitX=0.021;exitY=0.411;exitDx=0;exitDy=0;exitPerimeter=0;" parent="1" edge="1">
          <mxGeometry width="50" height="50" relative="1" as="geometry">
            <mxPoint x="297.0240000000001" y="536.7900000000001" as="sourcePoint" />
            <mxPoint x="254" y="536.8000000000001" as="targetPoint" />
          </mxGeometry>
        </mxCell>
        <mxCell id="TGPx2V8O0Z7DVdudsgvW-61" value="&lt;font color=&quot;#535e80&quot; style=&quot;font-size: 21px;&quot;&gt;随机串&lt;/font&gt;" style="text;html=1;strokeColor=none;fillColor=none;align=center;verticalAlign=middle;whiteSpace=wrap;rounded=0;fontColor=#4A919B;" parent="1" vertex="1">
          <mxGeometry x="130" y="559.0000000000001" width="117" height="29" as="geometry" />
        </mxCell>
        <mxCell id="TGPx2V8O0Z7DVdudsgvW-62" value="" style="shape=flexArrow;endArrow=classic;html=1;rounded=1;fontSize=28;fontColor=#808080;width=9.18032786885246;endSize=4.6;strokeColor=none;fillColor=#4A919B;" parent="1" edge="1">
          <mxGeometry width="50" height="50" relative="1" as="geometry">
            <mxPoint x="200.00000000000006" y="666.5799999999998" as="sourcePoint" />
            <mxPoint x="243.16000000000003" y="698.58" as="targetPoint" />
            <Array as="points">
              <mxPoint x="200.1599999999999" y="698.58" />
            </Array>
          </mxGeometry>
        </mxCell>
        <mxCell id="TGPx2V8O0Z7DVdudsgvW-103" value="" style="rounded=1;whiteSpace=wrap;html=1;strokeColor=default;fillColor=#E7E5ED;" parent="1" vertex="1">
          <mxGeometry x="281" y="776.58" width="602" height="152" as="geometry" />
        </mxCell>
        <mxCell id="TGPx2V8O0Z7DVdudsgvW-106" value="&lt;span style=&quot;font-size: 24px;&quot;&gt;&lt;font color=&quot;#535e80&quot;&gt;7.登录验证通过&lt;/font&gt;&lt;/span&gt;" style="text;html=1;strokeColor=none;fillColor=#E7E5ED;align=center;verticalAlign=middle;whiteSpace=wrap;rounded=0;fontSize=28;fontColor=#808080;" parent="1" vertex="1">
          <mxGeometry x="603.0000000000001" y="837.58" width="276.66" height="30" as="geometry" />
        </mxCell>
        <mxCell id="TGPx2V8O0Z7DVdudsgvW-108" value="" style="shape=image;verticalLabelPosition=bottom;verticalAlign=top;imageAspect=0;aspect=fixed;image=data:image/svg+xml,PHN2ZyB4bWxuczp4bGluaz0iaHR0cDovL3d3dy53My5vcmcvMTk5OS94bGluayIgeG1sbnM9Imh0dHA6Ly93d3cudzMub3JnLzIwMDAvc3ZnIiBoZWlnaHQ9IjIwMCIgd2lkdGg9IjIwMCIgdmVyc2lvbj0iMS4xIiB2aWV3Qm94PSIwIDAgMTAyNCAxMDI0IiBjbGFzcz0iaWNvbiI+PHBhdGggZmlsbD0iIzUzNUU4MCIgZD0iTTMxMi44ODg4ODkgOTk1LjU1NTU1NmMtMTcuMDY2NjY3IDAtMjguNDQ0NDQ0LTUuNjg4ODg5LTM5LjgyMjIyMi0xNy4wNjY2NjctMjIuNzU1NTU2LTIyLjc1NTU1Ni0xNy4wNjY2NjctNTYuODg4ODg5IDUuNjg4ODg5LTc5LjY0NDQ0NWwzNjQuMDg4ODg4LTMyOS45NTU1NTVjMTEuMzc3Nzc4LTExLjM3Nzc3OCAxNy4wNjY2NjctMjIuNzU1NTU2IDE3LjA2NjY2Ny0zNC4xMzMzMzMgMC0xMS4zNzc3NzgtNS42ODg4ODktMjIuNzU1NTU2LTE3LjA2NjY2Ny0zNC4xMzMzMzRMMjczLjA2NjY2NyAxODcuNzMzMzMzYy0yMi43NTU1NTYtMjIuNzU1NTU2LTI4LjQ0NDQ0NC01Ni44ODg4ODktNS42ODg4ODktNzkuNjQ0NDQ0IDIyLjc1NTU1Ni0yMi43NTU1NTYgNTYuODg4ODg5LTI4LjQ0NDQ0NCA3OS42NDQ0NDQtNS42ODg4ODlsMzY0LjA4ODg4OSAzMTIuODg4ODg5YzM0LjEzMzMzMyAyOC40NDQ0NDQgNTYuODg4ODg5IDczLjk1NTU1NiA1Ni44ODg4ODkgMTE5LjQ2NjY2N3MtMTcuMDY2NjY3IDg1LjMzMzMzMy01MS4yIDExOS40NjY2NjZsLTM2NC4wODg4ODkgMzI5Ljk1NTU1NmMtMTEuMzc3Nzc4IDUuNjg4ODg5LTI4LjQ0NDQ0NCAxMS4zNzc3NzgtMzkuODIyMjIyIDExLjM3Nzc3OHoiLz48L3N2Zz4=;flipH=1;fillColor=#E7E5ED;" parent="1" vertex="1">
          <mxGeometry x="555" y="825.08" width="55" height="55" as="geometry" />
        </mxCell>
        <mxCell id="TGPx2V8O0Z7DVdudsgvW-134" value="&lt;font style=&quot;font-size: 24px;&quot;&gt;&lt;font color=&quot;#4a919b&quot;&gt;5.将随机串发回给服务端&lt;/font&gt;&lt;br&gt;&lt;/font&gt;" style="text;html=1;strokeColor=none;fillColor=none;align=center;verticalAlign=middle;whiteSpace=wrap;rounded=0;fontSize=28;fontColor=#808080;" parent="1" vertex="1">
          <mxGeometry x="637.66" y="649.58" width="163" height="102" as="geometry" />
        </mxCell>
        <mxCell id="TGPx2V8O0Z7DVdudsgvW-139" value="" style="shape=image;verticalLabelPosition=bottom;verticalAlign=top;imageAspect=0;aspect=fixed;image=data:image/svg+xml,PHN2ZyB4bWxuczp4bGluaz0iaHR0cDovL3d3dy53My5vcmcvMTk5OS94bGluayIgeG1sbnM9Imh0dHA6Ly93d3cudzMub3JnLzIwMDAvc3ZnIiBoZWlnaHQ9IjIwMCIgd2lkdGg9IjIwMCIgdmVyc2lvbj0iMS4xIiB2aWV3Qm94PSIwIDAgMTAyNCAxMDI0IiBjbGFzcz0iaWNvbiI+PHBhdGggZmlsbD0iIzUzNUU4MCIgZD0iTTAgNzI4djEzNmMwIDM1LjMgMjguNyA2NCA2NCA2NGg4OTZjMzUuMyAwIDY0LTI4LjcgNjQtNjRWNzI4YzAtNC40LTMuNi04LTgtOEg4Yy00LjQgMC04IDMuNi04IDh6IG03NzQgOTZjMCA0LjQtMy42IDgtOCA4SDQyNGMtNC40IDAtOC0zLjYtOC04di00OGMwLTQuNCAzLjYtOCA4LThoMzQyYzQuNCAwIDggMy42IDggOHY0OHogbTEyMiAwYzAgNC40LTMuNiA4LTggOGgtNDhjLTQuNCAwLTgtMy42LTgtOHYtNDhjMC00LjQgMy42LTggOC04aDQ4YzQuNCAwIDggMy42IDggOHY0OHpNMCA1MzZ2MTQ0YzAgNC40IDMuNiA4IDggOGgxMDA4YzQuNCAwIDgtMy42IDgtOFY1MzZjMC00LjQtMy42LTgtOC04SDhjLTQuNCAwLTggMy42LTggOHogbTc3NCA5NmMwIDQuNC0zLjYgOC04IDhINDI0Yy00LjQgMC04LTMuNi04LTh2LTQ4YzAtNC40IDMuNi04IDgtOGgzNDJjNC40IDAgOCAzLjYgOCA4djQ4eiBtMTIyIDBjMCA0LjQtMy42IDgtOCA4aC00OGMtNC40IDAtOC0zLjYtOC04di00OGMwLTQuNCAzLjYtOCA4LThoNDhjNC40IDAgOCAzLjYgOCA4djQ4ek0wIDM0NHYxNDRjMCA0LjQgMy42IDggOCA4aDEwMDhjNC40IDAgOC0zLjYgOC04VjM0NGMwLTQuNC0zLjYtOC04LThIOGMtNC40IDAtOCAzLjYtOCA4eiBtNzc0IDk2YzAgNC40LTMuNiA4LTggOEg0MjRjLTQuNCAwLTgtMy42LTgtOHYtNDhjMC00LjQgMy42LTggOC04aDM0MmM0LjQgMCA4IDMuNiA4IDh2NDh6IG0xMjIgMGMwIDQuNC0zLjYgOC04IDhoLTQ4Yy00LjQgMC04LTMuNi04LTh2LTQ4YzAtNC40IDMuNi04IDgtOGg0OGM0LjQgMCA4IDMuNiA4IDh2NDh6TTk2MCA5Nkg2NGMtMzUuMyAwLTY0IDI4LjctNjQgNjR2MTM2YzAgNC40IDMuNiA4IDggOGgxMDA4YzQuNCAwIDgtMy42IDgtOFYxNjBjMC0zNS4zLTI4LjctNjQtNjQtNjR6TTc3NCAyNDhjMCA0LjQtMy42IDgtOCA4SDQyNGMtNC40IDAtOC0zLjYtOC04di00OGMwLTQuNCAzLjYtOCA4LThoMzQyYzQuNCAwIDggMy42IDggOHY0OHogbTEyMiAwYzAgNC40LTMuNiA4LTggOGgtNDhjLTQuNCAwLTgtMy42LTgtOHYtNDhjMC00LjQgMy42LTggOC04aDQ4YzQuNCAwIDggMy42IDggOHY0OHoiLz48L3N2Zz4=" parent="1" vertex="1">
          <mxGeometry x="725" y="72.00000000000003" width="155" height="155" as="geometry" />
        </mxCell>
        <mxCell id="5iUmlsxjvdSU9kBIYJvV-3" value="&lt;font style=&quot;font-size: 24px;&quot;&gt;&lt;font color=&quot;#515e83&quot;&gt;2.从authorized_keys&lt;br&gt;找到客户端公钥&lt;/font&gt;&lt;br&gt;&lt;/font&gt;" style="text;html=1;strokeColor=none;fillColor=none;align=center;verticalAlign=middle;whiteSpace=wrap;rounded=0;fontSize=28;fontColor=#808080;" parent="1" vertex="1">
          <mxGeometry x="918.21" y="158" width="235.13" height="102" as="geometry" />
        </mxCell>
        <mxCell id="5iUmlsxjvdSU9kBIYJvV-6" value="&lt;font style=&quot;font-size: 24px;&quot;&gt;&lt;font color=&quot;#515e83&quot;&gt;6.服务端验证随机串跟之前的一致，验证通过&lt;/font&gt;&lt;br&gt;&lt;/font&gt;" style="text;html=1;strokeColor=none;fillColor=none;align=center;verticalAlign=middle;whiteSpace=wrap;rounded=0;fontSize=28;fontColor=#808080;" parent="1" vertex="1">
          <mxGeometry x="979" y="765.58" width="178.99" height="102" as="geometry" />
        </mxCell>
        <mxCell id="4CuQxpmcvBkwadGIZDz--1" value="&lt;font style=&quot;font-size: 21px;&quot;&gt;客户端公钥&lt;br&gt;&lt;/font&gt;" style="text;html=1;strokeColor=none;fillColor=none;align=center;verticalAlign=middle;whiteSpace=wrap;rounded=0;fontColor=#4A919B;" vertex="1" parent="1">
          <mxGeometry x="444" y="406.58" width="111" height="30" as="geometry" />
        </mxCell>
        <mxCell id="4CuQxpmcvBkwadGIZDz--2" value="" style="shape=image;verticalLabelPosition=bottom;verticalAlign=top;imageAspect=0;aspect=fixed;image=data:image/svg+xml,PHN2ZyB4bWxuczp4bGluaz0iaHR0cDovL3d3dy53My5vcmcvMTk5OS94bGluayIgeG1sbnM9Imh0dHA6Ly93d3cudzMub3JnLzIwMDAvc3ZnIiBoZWlnaHQ9IjIwMCIgd2lkdGg9IjIwMCIgdmVyc2lvbj0iMS4xIiB2aWV3Qm94PSIwIDAgMTAyNCAxMDI0IiBjbGFzcz0iaWNvbiI+PHBhdGggZmlsbD0iIzRBOTE5QiIgZD0iTTQ0Ni42ODA0MDcgNTEzLjcwNDcyNmgxMzYuMDc4NzM5djUxMC4yOTUyNzRoLTEzNi4wNzg3Mzl6Ii8+PHBhdGggZmlsbD0iIzRBOTE5QiIgZD0iTTUzMi40MTAwMTMgNjY2Ljc5MzMwOGgxMTUuNjY2OTI4djEzNi4wNzg3NEg1MzIuNDEwMDEzek01MzIuNDEwMDEzIDg0My42OTU2N2gxNDkuNjg2NjEzdjEzNi4wNzg3NEg1MzIuNDEwMDEzek01MTEuOTk4MjAyIDU4NS4xNDYwNjVBMjkwLjUyODEwOSAyOTAuNTI4MTA5IDAgMCAxIDIxOS40Mjg5MTIgMjkyLjU3Njc3NSAyOTAuNTI4MTA5IDI5MC41MjgxMDkgMCAwIDEgNTExLjk5ODIwMiAwLjAwNzQ4NGEyOTAuNTI4MTA5IDI5MC41MjgxMDkgMCAwIDEgMjkyLjU2OTI5IDI5Mi41NjkyOTEgMjkwLjUyODEwOSAyOTAuNTI4MTA5IDAgMCAxLTI5Mi41NjkyOSAyOTIuNTY5Mjl6IG0wLTQ0OS4wNTk4NDFBMTUzLjc2ODk3NiAxNTMuNzY4OTc2IDAgMCAwIDM1NS41MDc2NTEgMjkyLjU3Njc3NWExNTMuNzY4OTc2IDE1My43Njg5NzYgMCAwIDAgMTU2LjQ5MDU1MSAxNTYuNDkwNTUgMTUzLjc2ODk3NiAxNTMuNzY4OTc2IDAgMCAwIDE1Ni40OTA1NS0xNTYuNDkwNTVBMTUzLjc2ODk3NiAxNTMuNzY4OTc2IDAgMCAwIDUxMS45OTgyMDIgMTM2LjA4NjIyNHoiLz48L3N2Zz4=" vertex="1" parent="1">
          <mxGeometry x="472" y="352" width="55" height="55" as="geometry" />
        </mxCell>
        <mxCell id="4CuQxpmcvBkwadGIZDz--3" value="" style="shape=image;verticalLabelPosition=bottom;labelBackgroundColor=default;verticalAlign=top;aspect=fixed;imageAspect=0;image=data:image/svg+xml,PHN2ZyB4bWxuczp4bGluaz0iaHR0cDovL3d3dy53My5vcmcvMTk5OS94bGluayIgeG1sbnM9Imh0dHA6Ly93d3cudzMub3JnLzIwMDAvc3ZnIiBoZWlnaHQ9IjEyOCIgd2lkdGg9IjEyOCIgdmVyc2lvbj0iMS4xIiB2aWV3Qm94PSIwIDAgMTAyNCAxMDI0IiBjbGFzcz0iaWNvbiI+PHBhdGggZmlsbD0iI0JERDJFRiIgZD0iTTUxNCAxMTQuM2MtMjE5LjkgMC0zOTguOCAxNzguOS0zOTguOCAzOTguOCAwIDIyMCAxNzguOSAzOTguOSAzOTguOCAzOTguOXMzOTguOC0xNzguOSAzOTguOC0zOTguOWMwLTIxOS44LTE3OC45LTM5OC44LTM5OC44LTM5OC44eiBtMCA3MDEuNmMtMTY2LjkgMC0zMDIuNy0xMzUuOC0zMDIuNy0zMDIuN1MzNDcuMSAyMTAuNSA1MTQgMjEwLjVzMzAyLjcgMTM1LjggMzAyLjcgMzAyLjdTNjgwLjkgODE1LjkgNTE0IDgxNS45eiIvPjxwYXRoIGZpbGw9IiMyODY3Q0UiIGQ9Ik01MTQgMzQ2LjNtLTE1NS4yIDBhMTU1LjIgMTU1LjIgMCAxIDAgMzEwLjQgMCAxNTUuMiAxNTUuMiAwIDEgMC0zMTAuNCAwWiIvPjxwYXRoIGZpbGw9IiMyODY3Q0UiIGQ9Ik02MjYuOSA0OTcuOWMtMzEuNSAyMy41LTcwLjYgMzcuNC0xMTIuOSAzNy40cy04MS40LTEzLjktMTEyLjktMzcuNGMtNzAuMiAzMC43LTEyNS41IDg5LTE1Mi4xIDE2MS4zIDUxLjYgOTMuMyAxNTEgMTU2LjcgMjY1IDE1Ni43czIxMy40LTYzLjQgMjY1LjEtMTU2LjdjLTI2LjctNzIuMy04Mi0xMzAuNi0xNTIuMi0xNjEuM3oiLz48L3N2Zz4=;" vertex="1" parent="1">
          <mxGeometry x="320.16" y="342.61999999999995" width="64.38" height="64.38" as="geometry" />
        </mxCell>
        <mxCell id="4CuQxpmcvBkwadGIZDz--4" value="" style="shape=image;verticalLabelPosition=bottom;labelBackgroundColor=default;verticalAlign=top;aspect=fixed;imageAspect=0;image=data:image/svg+xml,PHN2ZyB4bWxuczp4bGluaz0iaHR0cDovL3d3dy53My5vcmcvMTk5OS94bGluayIgeG1sbnM9Imh0dHA6Ly93d3cudzMub3JnLzIwMDAvc3ZnIiBoZWlnaHQ9IjEyOCIgd2lkdGg9IjEyOCIgdmVyc2lvbj0iMS4xIiB2aWV3Qm94PSIwIDAgMTAyNCAxMDI0IiBjbGFzcz0iaWNvbiI+PHBhdGggZmlsbD0iIzRBOTE5QiIgZD0iTTkyMS42IDYxNC40SDEwMi40Yy01OC4wMjY2NjcgMC0xMDIuNC00NC4zNzMzMzMtMTAyLjQtMTAyLjRzNDQuMzczMzMzLTEwMi40IDEwMi40LTEwMi40aDgxOS4yYzU4LjAyNjY2NyAwIDEwMi40IDQ0LjM3MzMzMyAxMDIuNCAxMDIuNHMtNDQuMzczMzMzIDEwMi40LTEwMi40IDEwMi40eiIvPjxwYXRoIGZpbGw9IiM0QTkxOUIiIGQ9Ik00MDkuNiA5MjEuNlYxMDIuNGMwLTU4LjAyNjY2NyA0NC4zNzMzMzMtMTAyLjQgMTAyLjQtMTAyLjRzMTAyLjQgNDQuMzczMzMzIDEwMi40IDEwMi40djgxOS4yYzAgNTguMDI2NjY3LTQ0LjM3MzMzMyAxMDIuNC0xMDIuNCAxMDIuNHMtMTAyLjQtNDQuMzczMzMzLTEwMi40LTEwMi40eiIvPjwvc3ZnPg==;" vertex="1" parent="1">
          <mxGeometry x="403.57" y="366.57" width="40.43" height="40.43" as="geometry" />
        </mxCell>
        <mxCell id="4CuQxpmcvBkwadGIZDz--5" value="&lt;font style=&quot;font-size: 21px;&quot;&gt;用户信息&lt;br&gt;&lt;/font&gt;" style="text;html=1;strokeColor=none;fillColor=none;align=center;verticalAlign=middle;whiteSpace=wrap;rounded=0;fontColor=#4A919B;" vertex="1" parent="1">
          <mxGeometry x="301.04" y="406.58" width="111" height="30" as="geometry" />
        </mxCell>
        <mxCell id="4CuQxpmcvBkwadGIZDz--6" value="&lt;font style=&quot;&quot;&gt;&lt;font style=&quot;font-size: 21px;&quot;&gt;客户端公钥&lt;/font&gt;&lt;br&gt;&lt;/font&gt;" style="text;html=1;strokeColor=none;fillColor=none;align=center;verticalAlign=middle;whiteSpace=wrap;rounded=0;fontColor=#4A919B;" vertex="1" parent="1">
          <mxGeometry x="884.3100000000001" y="410.58" width="111" height="30" as="geometry" />
        </mxCell>
        <mxCell id="4CuQxpmcvBkwadGIZDz--7" value="" style="shape=image;verticalLabelPosition=bottom;verticalAlign=top;imageAspect=0;aspect=fixed;image=data:image/svg+xml,PHN2ZyB4bWxuczp4bGluaz0iaHR0cDovL3d3dy53My5vcmcvMTk5OS94bGluayIgeG1sbnM9Imh0dHA6Ly93d3cudzMub3JnLzIwMDAvc3ZnIiBoZWlnaHQ9IjIwMCIgd2lkdGg9IjIwMCIgdmVyc2lvbj0iMS4xIiB2aWV3Qm94PSIwIDAgMTAyNCAxMDI0IiBjbGFzcz0iaWNvbiI+PHBhdGggZmlsbD0iIzRBOTE5QiIgZD0iTTQ0Ni42ODA0MDcgNTEzLjcwNDcyNmgxMzYuMDc4NzM5djUxMC4yOTUyNzRoLTEzNi4wNzg3Mzl6Ii8+PHBhdGggZmlsbD0iIzRBOTE5QiIgZD0iTTUzMi40MTAwMTMgNjY2Ljc5MzMwOGgxMTUuNjY2OTI4djEzNi4wNzg3NEg1MzIuNDEwMDEzek01MzIuNDEwMDEzIDg0My42OTU2N2gxNDkuNjg2NjEzdjEzNi4wNzg3NEg1MzIuNDEwMDEzek01MTEuOTk4MjAyIDU4NS4xNDYwNjVBMjkwLjUyODEwOSAyOTAuNTI4MTA5IDAgMCAxIDIxOS40Mjg5MTIgMjkyLjU3Njc3NSAyOTAuNTI4MTA5IDI5MC41MjgxMDkgMCAwIDEgNTExLjk5ODIwMiAwLjAwNzQ4NGEyOTAuNTI4MTA5IDI5MC41MjgxMDkgMCAwIDEgMjkyLjU2OTI5IDI5Mi41NjkyOTEgMjkwLjUyODEwOSAyOTAuNTI4MTA5IDAgMCAxLTI5Mi41NjkyOSAyOTIuNTY5Mjl6IG0wLTQ0OS4wNTk4NDFBMTUzLjc2ODk3NiAxNTMuNzY4OTc2IDAgMCAwIDM1NS41MDc2NTEgMjkyLjU3Njc3NWExNTMuNzY4OTc2IDE1My43Njg5NzYgMCAwIDAgMTU2LjQ5MDU1MSAxNTYuNDkwNTUgMTUzLjc2ODk3NiAxNTMuNzY4OTc2IDAgMCAwIDE1Ni40OTA1NS0xNTYuNDkwNTVBMTUzLjc2ODk3NiAxNTMuNzY4OTc2IDAgMCAwIDUxMS45OTgyMDIgMTM2LjA4NjIyNHoiLz48L3N2Zz4=" vertex="1" parent="1">
          <mxGeometry x="912.3100000000001" y="356" width="55" height="55" as="geometry" />
        </mxCell>
        <mxCell id="4CuQxpmcvBkwadGIZDz--8" value="" style="shape=image;verticalLabelPosition=bottom;labelBackgroundColor=default;verticalAlign=top;aspect=fixed;imageAspect=0;image=data:image/svg+xml,PHN2ZyB4bWxuczp4bGluaz0iaHR0cDovL3d3dy53My5vcmcvMTk5OS94bGluayIgeG1sbnM9Imh0dHA6Ly93d3cudzMub3JnLzIwMDAvc3ZnIiBoZWlnaHQ9IjEyOCIgd2lkdGg9IjEyOCIgdmVyc2lvbj0iMS4xIiB2aWV3Qm94PSIwIDAgMTAyNCAxMDI0IiBjbGFzcz0iaWNvbiI+PHBhdGggZmlsbD0iI0JERDJFRiIgZD0iTTUxNCAxMTQuM2MtMjE5LjkgMC0zOTguOCAxNzguOS0zOTguOCAzOTguOCAwIDIyMCAxNzguOSAzOTguOSAzOTguOCAzOTguOXMzOTguOC0xNzguOSAzOTguOC0zOTguOWMwLTIxOS44LTE3OC45LTM5OC44LTM5OC44LTM5OC44eiBtMCA3MDEuNmMtMTY2LjkgMC0zMDIuNy0xMzUuOC0zMDIuNy0zMDIuN1MzNDcuMSAyMTAuNSA1MTQgMjEwLjVzMzAyLjcgMTM1LjggMzAyLjcgMzAyLjdTNjgwLjkgODE1LjkgNTE0IDgxNS45eiIvPjxwYXRoIGZpbGw9IiMyODY3Q0UiIGQ9Ik01MTQgMzQ2LjNtLTE1NS4yIDBhMTU1LjIgMTU1LjIgMCAxIDAgMzEwLjQgMCAxNTUuMiAxNTUuMiAwIDEgMC0zMTAuNCAwWiIvPjxwYXRoIGZpbGw9IiMyODY3Q0UiIGQ9Ik02MjYuOSA0OTcuOWMtMzEuNSAyMy41LTcwLjYgMzcuNC0xMTIuOSAzNy40cy04MS40LTEzLjktMTEyLjktMzcuNGMtNzAuMiAzMC43LTEyNS41IDg5LTE1Mi4xIDE2MS4zIDUxLjYgOTMuMyAxNTEgMTU2LjcgMjY1IDE1Ni43czIxMy40LTYzLjQgMjY1LjEtMTU2LjdjLTI2LjctNzIuMy04Mi0xMzAuNi0xNTIuMi0xNjEuM3oiLz48L3N2Zz4=;" vertex="1" parent="1">
          <mxGeometry x="907.62" y="234.99999999999997" width="64.38" height="64.38" as="geometry" />
        </mxCell>
        <mxCell id="4CuQxpmcvBkwadGIZDz--10" value="&lt;font style=&quot;&quot;&gt;&lt;font style=&quot;font-size: 21px;&quot;&gt;用户信息&lt;/font&gt;&lt;br&gt;&lt;/font&gt;" style="text;html=1;strokeColor=none;fillColor=none;align=center;verticalAlign=middle;whiteSpace=wrap;rounded=0;fontColor=#4A919B;" vertex="1" parent="1">
          <mxGeometry x="884.31" y="289.58" width="111" height="30" as="geometry" />
        </mxCell>
        <mxCell id="4CuQxpmcvBkwadGIZDz--11" value="" style="shape=image;verticalLabelPosition=bottom;labelBackgroundColor=default;verticalAlign=top;aspect=fixed;imageAspect=0;image=data:image/svg+xml,PHN2ZyB4bWxuczp4bGluaz0iaHR0cDovL3d3dy53My5vcmcvMTk5OS94bGluayIgeG1sbnM9Imh0dHA6Ly93d3cudzMub3JnLzIwMDAvc3ZnIiBoZWlnaHQ9IjEyOCIgd2lkdGg9IjEyOCIgdmVyc2lvbj0iMS4xIiB2aWV3Qm94PSIwIDAgMTAyNCAxMDI0IiBjbGFzcz0iaWNvbiI+PHBhdGggZmlsbD0iIzUzNUU4MCIgZD0iTTk0NS4wMTU0NjcgMjA5Ljg1MTczM0w3NDQuNzIxMDY3IDEwLjcxNzg2N0EzNy40MTAxMzMgMzcuNDEwMTMzIDAgMCAwIDcxOC41MDY2NjcgMEgxNDIuMTk5NDY3QzEwMS40NDQyNjcgMCA2OC4yNjY2NjcgMzIuNzY4IDY4LjI2NjY2NyA3My4xMTM2Vjk1MC45NTQ2NjdDNjguMjY2NjY3IDk5MS4xNjM3MzMgMTAxLjQ0NDI2NyAxMDI0IDE0Mi4xOTk0NjcgMTAyNGg3MzkuNjAxMDY2YzQwLjc1NTIgMCA3My45MzI4LTMyLjc2OCA3My45MzI4LTczLjExMzZWMjM1LjY1NjUzM2EzNi4xODEzMzMgMzYuMTgxMzMzIDAgMCAwLTEwLjcxNzg2Ni0yNS44MDQ4eiBtLTYzLjIxNDkzNCA3MDQuNDQzNzM0YTM2LjcyNzQ2NyAzNi43Mjc0NjcgMCAwIDEtMzcuMDAwNTMzIDM2LjU5MDkzM2gtNjY1LjZjLTIwLjQ4IDAtMzcuMDAwNTMzLTE2LjM4NC0zNy4wMDA1MzMtMzYuNTkwOTMzVjEwOS43MDQ1MzNjMC0yMC4yMDY5MzMgMTYuNTIwNTMzLTM2LjU5MDkzMyAzNy4wMDA1MzMtMzYuNTkwOTMzaDQ0My43MzMzMzNWMjU2YzAgNDAuMzQ1NiAzMy4xNzc2IDczLjExMzYgNzMuOTMyOCA3My4xMTM2aDE4NC45MzQ0djU4NS4xODE4Njd6TTczMy44NjY2NjcgMjU2Yy0yMC40OCAwLTM3LjAwMDUzMy0xNi4zODQtMzcuMDAwNTM0LTM2LjU5MDkzM1Y3My4xMTM2bDE4NC45MzQ0IDE4Mi44ODY0SDczMy44NjY2Njd6Ii8+PHBhdGggZmlsbD0iIzUzNUU4MCIgZD0iTTcxMS45NTMwNjcgNzQxLjE3MTJIMjQzLjcxMmEzOC45MTIgMzguOTEyIDAgMSAwIDAgNzguMDI4OEg3MTIuMDIxMzMzYTM4LjkxMiAzOC45MTIgMCAxIDAgMC03OC4wMjg4ek0yNDMuNzEyIDUwNy4yMjEzMzNhMzguOTEyIDM4LjkxMiAwIDEgMCAwIDc3Ljk2MDUzNEg3MTIuMDIxMzMzYTM4LjkxMiAzOC45MTIgMCAxIDAgMC03Ny45NjA1MzRIMjQzLjcxMnogbTAtMTU2LjA1NzZINDc3Ljg2NjY2N0EzOC45MTIgMzguOTEyIDAgMSAwIDQ3Ny44NjY2NjcgMjczLjA2NjY2N0gyNDMuNzgwMjY3YTM4LjkxMiAzOC45MTIgMCAxIDAgMCA3OC4wMjg4eiIvPjwvc3ZnPg==;" vertex="1" parent="1">
          <mxGeometry x="1021.52" y="312" width="43.7" height="43.7" as="geometry" />
        </mxCell>
        <mxCell id="4CuQxpmcvBkwadGIZDz--12" value="" style="shape=flexArrow;endArrow=classic;html=1;rounded=0;fontSize=28;fontColor=#808080;width=9.18032786885246;endSize=4.6;strokeColor=none;fillColor=#535E80;" edge="1" parent="1">
          <mxGeometry width="50" height="50" relative="1" as="geometry">
            <mxPoint x="900" y="533.9" as="sourcePoint" />
            <mxPoint x="858" y="533.9" as="targetPoint" />
          </mxGeometry>
        </mxCell>
        <mxCell id="4CuQxpmcvBkwadGIZDz--13" value="&lt;font style=&quot;font-size: 21px;&quot; color=&quot;#535e80&quot;&gt;authorized_keys&lt;/font&gt;" style="text;html=1;strokeColor=none;fillColor=none;align=center;verticalAlign=middle;whiteSpace=wrap;rounded=0;fontColor=#4A919B;" vertex="1" parent="1">
          <mxGeometry x="986.13" y="360.0000000000001" width="136.75" height="21.42" as="geometry" />
        </mxCell>
        <mxCell id="4CuQxpmcvBkwadGIZDz--14" value="" style="shape=flexArrow;endArrow=classic;html=1;rounded=1;fontSize=28;fontColor=#808080;width=9.18032786885246;endSize=4.6;strokeColor=none;fillColor=#515E83;" edge="1" parent="1">
          <mxGeometry width="50" height="50" relative="1" as="geometry">
            <mxPoint x="1043.1599999999999" y="384.9999999999998" as="sourcePoint" />
            <mxPoint x="999.9999999999998" y="417" as="targetPoint" />
            <Array as="points">
              <mxPoint x="1043" y="417" />
            </Array>
          </mxGeometry>
        </mxCell>
        <mxCell id="4CuQxpmcvBkwadGIZDz--17" value="" style="shape=flexArrow;endArrow=classic;html=1;rounded=1;fontSize=28;fontColor=#808080;width=9.18032786885246;endSize=4.6;strokeColor=none;fillColor=#515E83;" edge="1" parent="1">
          <mxGeometry width="50" height="50" relative="1" as="geometry">
            <mxPoint x="1000" y="266.73" as="sourcePoint" />
            <mxPoint x="1040" y="305.73" as="targetPoint" />
            <Array as="points">
              <mxPoint x="1040" y="266.73" />
            </Array>
          </mxGeometry>
        </mxCell>
        <mxCell id="4CuQxpmcvBkwadGIZDz--19" value="&lt;font style=&quot;&quot;&gt;&lt;span style=&quot;font-size: 21px;&quot;&gt;&lt;font color=&quot;#515e83&quot;&gt;随机串&lt;/font&gt;&lt;/span&gt;&lt;br&gt;&lt;/font&gt;" style="text;html=1;strokeColor=none;fillColor=none;align=center;verticalAlign=middle;whiteSpace=wrap;rounded=0;fontColor=#4A919B;" vertex="1" parent="1">
          <mxGeometry x="886.7100000000002" y="553.5799999999999" width="111" height="30" as="geometry" />
        </mxCell>
        <mxCell id="4CuQxpmcvBkwadGIZDz--20" value="&lt;font color=&quot;#515e83&quot; style=&quot;font-size: 28px;&quot;&gt;加密后的随机串&lt;/font&gt;" style="text;html=1;strokeColor=none;fillColor=none;align=center;verticalAlign=middle;whiteSpace=wrap;rounded=0;fontColor=#4A919B;" vertex="1" parent="1">
          <mxGeometry x="604.16" y="536.7900000000001" width="230" height="30" as="geometry" />
        </mxCell>
        <mxCell id="4CuQxpmcvBkwadGIZDz--22" value="" style="shape=image;verticalLabelPosition=bottom;labelBackgroundColor=default;verticalAlign=top;aspect=fixed;imageAspect=0;image=data:image/svg+xml,PHN2ZyB4bWxuczp4bGluaz0iaHR0cDovL3d3dy53My5vcmcvMTk5OS94bGluayIgeG1sbnM9Imh0dHA6Ly93d3cudzMub3JnLzIwMDAvc3ZnIiBoZWlnaHQ9IjIwMCIgd2lkdGg9IjIwMCIgdmVyc2lvbj0iMS4xIiB2aWV3Qm94PSIwIDAgMTAyNCAxMDI0IiBjbGFzcz0iaWNvbiI+PHBhdGggZmlsbD0iIzUzNUU4MCIgZD0iTTkyNS42OTYgMzg0cTE5LjQ1NiAwIDM3LjM3NiA3LjY4dDMwLjcyIDIwLjQ4IDIwLjQ4IDMwLjcyIDcuNjggMzcuMzc2cTAgMjAuNDgtNy42OCAzNy44ODh0LTIwLjQ4IDMwLjIwOC0zMC43MiAyMC40OC0zNy4zNzYgNy42OGwtMjg3Ljc0NCAwIDAgMjg3Ljc0NHEwIDIwLjQ4LTcuNjggMzcuODg4dC0yMC40OCAzMC4yMDgtMzAuNzIgMjAuNDgtMzcuMzc2IDcuNjhxLTIwLjQ4IDAtMzcuODg4LTcuNjh0LTMwLjIwOC0yMC40OC0yMC40OC0zMC4yMDgtNy42OC0zNy44ODhsMC0yODcuNzQ0LTI4Ny43NDQgMHEtMjAuNDggMC0zNy44ODgtNy42OHQtMzAuMjA4LTIwLjQ4LTIwLjQ4LTMwLjIwOC03LjY4LTM3Ljg4OHEwLTE5LjQ1NiA3LjY4LTM3LjM3NnQyMC40OC0zMC43MiAzMC4yMDgtMjAuNDggMzcuODg4LTcuNjhsMjg3Ljc0NCAwIDAtMjg3Ljc0NHEwLTE5LjQ1NiA3LjY4LTM3LjM3NnQyMC40OC0zMC43MiAzMC4yMDgtMjAuNDggMzcuODg4LTcuNjhxMzkuOTM2IDAgNjguMDk2IDI4LjE2dDI4LjE2IDY4LjA5NmwwIDI4Ny43NDQgMjg3Ljc0NCAweiIvPjwvc3ZnPg==;" vertex="1" parent="1">
          <mxGeometry x="924.81" y="457.00000000000006" width="30" height="30" as="geometry" />
        </mxCell>
        <mxCell id="4CuQxpmcvBkwadGIZDz--23" value="" style="shape=image;verticalLabelPosition=bottom;verticalAlign=top;imageAspect=0;aspect=fixed;image=data:image/svg+xml,PHN2ZyB4bWxuczp4bGluaz0iaHR0cDovL3d3dy53My5vcmcvMTk5OS94bGluayIgeG1sbnM9Imh0dHA6Ly93d3cudzMub3JnLzIwMDAvc3ZnIiBoZWlnaHQ9IjIwMCIgd2lkdGg9IjIwMCIgdmVyc2lvbj0iMS4xIiB2aWV3Qm94PSIwIDAgMTAyNCAxMDI0IiBjbGFzcz0iaWNvbiI+PHBhdGggZmlsbD0iIzUzNUU4MCIgZD0iTTQyMS4zNzYgNDgxLjI4czExNy4yNDggMjQuNTc2IDE3NS4xMDQtOC43MDRjMCAwLTg5LjYgNzAuMTQ0LTg5LjYgMTY2LjQgMC41MTItMC41MTItOC4xOTItMTIxLjM0NC04NS41MDQtMTU3LjY5NnpNNDM4Ljc4NCA5NjkuMjE2czY4LjYwOCA2LjY1NiA2OC42MDgtODAuODk2YzAgMCAzLjA3MiA4OC41NzYgNjUuMDI0IDc4LjMzNiAwIDAuNTEyLTUwLjY4OCAyMi4wMTYtMTMzLjYzMiAyLjU2ek0xNjEuMjggMjM4LjA4cy0zMC4yMDggNjUuNTM2IDExLjI2NCA5MS42NDhjMCAwLTY3LjA3Mi0xNy40MDgtODEuNDA4IDM3LjM3NiAwIDAgOC43MDQtODIuOTQ0IDcwLjE0NC0xMjkuMDI0ek04NTcuNiAyMjcuMzI4czQ5LjE1MiA1MC4xNzYgMS4wMjQgODEuNDA4YzAgMCA1OC44OC0xOC40MzIgNjYuNTYgMzYuMzUyIDAgMCA1LjEyLTY5LjYzMi02Ny41ODQtMTE3Ljc2eiIvPjxwYXRoIGZpbGw9IiM1MzVFODAiIGQ9Ik00NDMuMzkyIDk3MC43NTJjLTUuNjMyIDAtMTAuNzUyLTEuMDI0LTE1LjM2LTMuMDcybC0yNzAuODQ4LTE1Ny4xODQtMS41MzYtMS4wMjRzLTEuMDI0LTEuMDI0LTQuNjA4LTIuNTZjLTUxLjItMjkuMTg0LTYyLjk3Ni05NC4yMDgtNjUuNTM2LTEyMC44MzJWMzg2LjU2YzAtMy4wNzIgMC41MTItNy4xNjggMS4wMjQtMTEuMjY0bDAuNTEyLTMuNTg0IDEuMDI0LTIuNTZjMTkuNDU2LTUwLjY4OCA3Ni44LTUxLjIgMTAzLjkzNi00NC4wMzJsLTEuNTM2IDUuNjMyIDQuMDk2LTYuMTQ0TDQ3Ni4xNiA0ODYuNGwxOC45NDQgMzcuODg4YzIwLjk5MiAzNi44NjQgMjkuMTg0IDc3LjgyNCAzMi43NjggOTkuODR2MjU4LjA0OGMtNC42MDggNTYuMzItMzYuODY0IDc2LjI4OC01NS44MDggODIuOTQ0LTEuMDI0IDAuNTEyLTE1LjM2IDUuNjMyLTI4LjY3MiA1LjYzMnogbS0yNjIuMTQ0LTE5Ni4wOTZsMjYzLjE2OCAxNTIuNTc2YzEyLjI4OC0wLjUxMiAzNi44NjQtNi42NTYgNDAuNDQ4LTQ4LjEyOHYtMjUwLjM2OGMtNC42MDgtMzEuNzQ0LTIwLjk5Mi0xMDMuOTM2LTcyLjE5Mi0xMjhMMzIyLjU2IDQ0NS40NGwxLjUzNiAzLjA3Mi0xNDIuMzM2LTgyLjQzMmMtMi4wNDgtMC41MTItNDAuNDQ4LTkuMjE2LTUyLjczNiAxNS44NzItMC41MTIgMi41Ni0wLjUxMiA0LjYwOC0wLjUxMiA2LjE0NHYyOTQuNGMxLjUzNiAxNi44OTYgOS43MjggNjcuMDcyIDQzLjUyIDg2LjUyOCAzLjU4NCAyLjA0OCA2LjY1NiA0LjA5NiA5LjIxNiA1LjYzMnoiLz48cGF0aCBmaWxsPSIjNTM1RTgwIiBkPSJNODM3LjYzMiAyMTIuOTkyYzYuNjU2IDQuMDk2IDEyLjggNy4xNjggMTguNDMyIDEwLjc1MmwxLjUzNiAxLjAyNCAxLjUzNiAxLjUzNmM1LjEyIDQuMDk2IDEwLjc1MiA5LjIxNiAxNi4zODQgMTUuMzYgNi4xNDQgMTEuNzc2IDUuNjMyIDMzLjI4IDQuNjA4IDQ5LjE1Mi0xLjAyNCAxMi4yODgtNi42NTYgMzAuMjA4LTI2LjYyNCA0NC41NDRsLTEuMDI0IDAuNTEyLTI0Ny44MDggMTU2LjY3MmMtMjYuNjI0IDE0LjMzNi02Mi45NzYgMTguNDMyLTk2LjI1NiAxOC40MzItNDAuOTYgMC03Ny44MjQtNi42NTYtODkuMDg4LTguNzA0bC0zLjA3Mi0wLjUxMi0yNDUuMjQ4LTE0Mi4zMzZjLTM5LjQyNC0yOS42OTYtMjguMTYtODUuNTA0LTE1LjM2LTExMy42NjRsMi41Ni02LjE0NCAyNjMuNjgtMTY2LjkxMmMyOS4xODQtMTQuMzM2IDEwNC40NDgtNDMuMDA4IDE3My4wNTYtMS4wMjQgMy41ODQgMi41NiA1OC4zNjggMzQuMzA0IDExOS4yOTYgNjkuNjMyTTQzMS42MTYgNDYwLjhjNDAuNDQ4IDcuMTY4IDExNC4xNzYgMTMuODI0IDE1Mi41NzYtNi4xNDRsMjQ0LjczNi0xNTUuMTM2YzcuMTY4LTUuNjMyIDguMTkyLTEwLjI0IDguNzA0LTEyLjggMS4wMjQtMTEuMjY0LTkuNzI4LTI2LjYyNC0xNS4zNi0zMi43NjgtNTUuODA4LTMyLjI1Ni0yNDMuNzEyLTE0MS4zMTItMjUwLjM2OC0xNDUuNDA4LTQ5LjY2NC0zMC43Mi0xMDcuMDA4LTkuMjE2LTEzMC4wNDggMi41NkwxOTIuNTEyIDI2OC44Yy00LjA5NiAxMi4yODgtMTIuMjg4IDQyLjQ5NiAzLjU4NCA1NS44MDhsMjM1LjUyIDEzNi4xOTJ6Ii8+PHBhdGggZmlsbD0iIzUzNUU4MCIgZD0iTTgzMS40ODggMjk5LjAwOGM0LjA5Ni0xLjAyNCAzOC40LTExLjI2NCA2Ni4wNDggNi4xNDQgNy4xNjggNC42MDggMTcuOTIgMTEuNzc2IDI0LjA2NCAyNC41NzYgMS4wMjQgNS42MzIgNC4wOTYgMTAuNzUyIDQuNjA4IDE2Ljg5NnYyLjA0OGwtMS4wMjQgMzIzLjA3MmMtNS4xMiAzNS4zMjgtMjIuNTI4IDkxLjY0OC03Ny4zMTIgMTI1LjQ0bC01LjEyIDMuNTg0aC0xLjAyNGwtMjYyLjE0NCAxNjUuODg4LTQuNjA4IDAuNTEyYy00LjA5NiAwLjUxMi04LjcwNCAxLjAyNC0xMi44IDEuMDI0LTE1Ljg3MiAwLTMwLjIwOC01LjEyLTQxLjk4NC0xNC44NDgtMjQuNTc2LTIwLjQ4LTMyLjc2OC01NS44MDgtMzUuMzI4LTczLjcyOGwtMS4wMjQtMjUyLjkyOGgxLjUzNmM2LjE0NC05Ni43NjggODguNTc2LTE2NC44NjQgOTYuNzY4LTE3MS4wMDhsLTAuNTEyLTAuNTEyTDgyOS40NCAyOTkuNTJtLTMwMS4wNTYgNTY3LjgwOGMwLjUxMiAxMC4yNCA1LjEyIDQxLjQ3MiAxOS45NjggNTMuNzYgMy4wNzIgMi41NiA3LjY4IDUuNjMyIDE2LjM4NCA1LjEybDI2NC43MDQtMTY3LjkzNmM1Ni4zMi0zOC40IDUzLjc2LTExNS43MTIgNTMuNzYtMTE2LjIyNGwtMC41MTItMzIuMjU2IDEuMDI0LTI1MC4zNjhoLTAuNTEyYy0xLjUzNi0xMi44LTcuMTY4LTE2LjM4NC04LjcwNC0xNy40MDgtOC43MDQtNS42MzItMjMuNTUyLTMuMDcyLTI4LjY3Mi0yLjA0OGwtMjM1LjUyIDE0OC45OTJjLTEuMDI0IDAuNTEyLTgwLjg5NiA2NS4wMjQtODAuODk2IDE0OS41MDRoLTEuNTM2bDAuNTEyIDIyOC44NjR6TTQzNS4yIDI2NC4xOTJjMCAyNy42NDggMzEuNzQ0IDUwLjE3NiA3MS4xNjggNTAuMTc2czcxLjE2OC0yMi41MjggNzEuMTY4LTUwLjE3Ni0zMS43NDQtNTAuMTc2LTcxLjE2OC01MC4xNzZTNDM1LjIgMjM2LjU0NCA0MzUuMiAyNjQuMTkyeiIvPjxwYXRoIGZpbGw9IiM1MzVFODAiIGQ9Ik02NjMuNTUyIDc4Mi44NDhjMCAzMC43Mi0yMi41MjggNjcuMDcyLTQ5LjY2NCA4MC4zODQtMjcuNjQ4IDEzLjgyNC01MC4xNzYtMC41MTItNTAuMTc2LTMxLjIzMnMyMi41MjgtNjcuMDcyIDUwLjE3Ni04MC4zODRjMjcuMTM2LTEzLjgyNCA0OS42NjQgMCA0OS42NjQgMzEuMjMyek03NjAuMzIgNjAyLjYyNGMwIDMwLjcyLTIyLjUyOCA2Ny4wNzItNDkuNjY0IDgwLjM4NC0yNy42NDggMTMuODI0LTQ5LjY2NC0wLjUxMi00OS42NjQtMzEuMjMyczIyLjUyOC02Ny4wNzIgNDkuNjY0LTgwLjM4NGMyNy4xMzYtMTMuODI0IDQ5LjY2NCAwLjUxMiA0OS42NjQgMzEuMjMyek04NjcuODQgNDI4LjAzMmMwIDMwLjcyLTIyLjUyOCA2Ny4wNzItNDkuNjY0IDgwLjM4NC0yNy42NDggMTMuODI0LTUwLjE3Ni0wLjUxMi01MC4xNzYtMzEuMjMyczIyLjUyOC02Ny4wNzIgNTAuMTc2LTgwLjM4NGMyNy4xMzYtMTMuODI0IDQ5LjY2NCAwIDQ5LjY2NCAzMS4yMzJ6TTI3MC44NDggNTM4LjExMmMwIDMwLjcyLTIyLjAxNiA0MS45ODQtNDguNjQgMjQuNTc2LTI3LjEzNi0xNi44OTYtNDguNjQtNTUuODA4LTQ4LjY0LTg2LjUyOCAwLTMwLjcyIDIyLjAxNi00MS45ODQgNDguNjQtMjQuNTc2IDI2LjYyNCAxNi44OTYgNDguNjQgNTUuODA4IDQ4LjY0IDg2LjUyOHpNNDMyLjEyOCA4MjMuMjk2YzAgMzAuNzItMjIuMDE2IDQxLjk4NC00OC42NCAyNC41NzYtMjYuNjI0LTE3LjQwOC00OC42NC01NS44MDgtNDguNjQtODYuNTI4IDAtMzAuNzIgMjIuMDE2LTQxLjk4NCA0OC42NC0yNC41NzYgMjYuNjI0IDE2Ljg5NiA0OC42NCA1NS44MDggNDguNjQgODYuNTI4eiIvPjwvc3ZnPg==" vertex="1" parent="1">
          <mxGeometry x="911.31" y="495" width="56" height="56" as="geometry" />
        </mxCell>
        <mxCell id="4CuQxpmcvBkwadGIZDz--24" value="" style="shape=image;verticalLabelPosition=bottom;labelBackgroundColor=default;verticalAlign=top;aspect=fixed;imageAspect=0;image=data:image/svg+xml,PHN2ZyB4bWxuczp4bGluaz0iaHR0cDovL3d3dy53My5vcmcvMTk5OS94bGluayIgeG1sbnM9Imh0dHA6Ly93d3cudzMub3JnLzIwMDAvc3ZnIiBoZWlnaHQ9IjEyOCIgd2lkdGg9IjEyOCIgdmVyc2lvbj0iMS4xIiB2aWV3Qm94PSIwIDAgMTAyNCAxMDI0IiBjbGFzcz0iaWNvbiI+PHBhdGggZmlsbD0iIzUzNUU4MCIgZD0iTTIyNy4yIDcwOS43bDQyLjUtNDIuNWMtMTEuMS04LjctMjEuOS0xNy44LTMyLjUtMjcuMS01MC00NC41LTg3LjUtODkuMy0xMDUuOS0xMTMuMSAxOC41LTIzLjggNTUuOC02OC42IDEwNS45LTExMy4xIDY0LjktNTcuNiAxNjUuMi0xMjYuMiAyNzQuNy0xMjYuMiAzOS41IDAgNzcuNyA4LjkgMTEzLjUgMjNMNjcxIDI2NWMtNTMuOC0yNC43LTEwNy4zLTM3LTE1OS4yLTM3LTU3LjMgMC0xMTYuNiAxNS4yLTE3Ni4xIDQ1LjMtNDYuNiAyMy40LTkzLjQgNTYtMTM5LjMgOTYuOEMxMTkuMyA0MzguOSA3MS42IDUwNyA2OS41IDUwOS44Yy03LjEgMTAuMy03LjEgMjQgMCAzNC4yIDIgMi44IDQ5LjYgNzEgMTI3LjEgMTM5LjggMTAgOC44IDIwLjIgMTcuNSAzMC42IDI1Ljl6IG02MDAtMzM5LjdjLTE4LjItMTYuMi0zNy4yLTMxLjYtNTYuOC00Nmw5Ny4xLTk3LjJjMTIuNC0xMi41IDEyLjQtMzIuNiAwLTQ1LjFsMi43IDIuN2MtNi02LTE0LTkuMy0yMi41LTkuMy04LjQgMC0xNi41IDMuMy0yMi40IDkuM0wyMTMuNyA3OTcuMmMtMTIuNCAxMi41LTEyLjQgMzIuNiAwIDQ1LjFsLTIuNy0yLjdjNiA2IDE0LjEgOS4zIDIyLjUgOS4zczE2LjUtMy41IDIyLjUtOS40bDY2LTY2LjFjNC43IDIuNSA5LjMgNSAxNCA3LjMgNTkuNSAzMCAxMTguOCA0NS4zIDE3Ni4xIDQ1LjNzMTE2LjYtMTUuMiAxNzYuMS00NS4zYzQ2LjYtMjMuNCA5My40LTU2IDEzOS4yLTk2LjggNzcuMy02OC45IDEyNS0xMzcgMTI3LjEtMTM5LjkgNy4xLTEwLjMgNy4xLTI0IDAtMzQuMi0yLjMtMi44LTUwLTcwLjktMTI3LjMtMTM5Ljh6IG0tMTgxIDE1Ni45YzAgNzQuMi02MC4zIDEzNC42LTEzNC4zIDEzNC42LTIyLjYgMC00NC4xLTUuNy02Mi43LTE1LjZMNjMwLjcgNDY0YzEwLjIgMTkuNCAxNS41IDQwLjkgMTUuNSA2Mi45eiBtMTQwLjQgMTEzYy02NC45IDU3LjYtMTY1LjIgMTI2LjItMjc0LjcgMTI2LjItNTEuNSAwLTEwMC45LTE1LjItMTQ1LjctMzcuM2wzOS40LTM5LjRjMzEuNiAyMC44IDY4LjUgMzEuOSAxMDYuMyAzMS45IDEwNyAwIDE5NC04Ny4yIDE5NC0xOTQuNCAwLTM5LjMtMTEuNy03NS44LTMxLjgtMTA2LjVsNTMuNC01My41YzIwLjUgMTQuNSA0MC4yIDMwLjEgNTkuMSA0Ni45IDUwIDQ0LjQgODcuNSA4OS4zIDEwNS45IDExMy4xLTE4LjQgMjMuNy01NS45IDY4LjctMTA1LjkgMTEzek01MTEuOSAzOTIuNGM5LjkgMCAxOS42IDEuMSAyOC45IDMuMWw0Ny4zLTQ3LjNjLTI0LjEtMTAuNC00OS45LTE1LjYtNzYuMS0xNS42LTEwNyAwLTE5NCA4Ny4yLTE5NCAxOTQuNCAwIDI3LjEgNS42IDUyLjkgMTUuNiA3Ni4ybDQ3LjMtNDcuM2MtMi4xLTkuNS0zLjEtMTkuMi0zLjEtMjguOS0wLjItNzQuMyA2MC0xMzQuNiAxMzQuMS0xMzQuNnoiLz48L3N2Zz4=;" vertex="1" parent="1">
          <mxGeometry x="677" y="479.21" width="60.63" height="60.63" as="geometry" />
        </mxCell>
        <mxCell id="4CuQxpmcvBkwadGIZDz--25" value="&lt;font style=&quot;&quot;&gt;&lt;font style=&quot;font-size: 21px;&quot;&gt;客户端私钥&lt;/font&gt;&lt;br&gt;&lt;/font&gt;" style="text;html=1;strokeColor=none;fillColor=none;align=center;verticalAlign=middle;whiteSpace=wrap;rounded=0;fontColor=#4A919B;" vertex="1" parent="1">
          <mxGeometry x="368.2800000000001" y="553.58" width="111" height="30" as="geometry" />
        </mxCell>
        <mxCell id="4CuQxpmcvBkwadGIZDz--26" value="" style="shape=image;verticalLabelPosition=bottom;verticalAlign=top;imageAspect=0;aspect=fixed;image=data:image/svg+xml,PHN2ZyB4bWxuczp4bGluaz0iaHR0cDovL3d3dy53My5vcmcvMTk5OS94bGluayIgeG1sbnM9Imh0dHA6Ly93d3cudzMub3JnLzIwMDAvc3ZnIiBoZWlnaHQ9IjIwMCIgd2lkdGg9IjIwMCIgdmVyc2lvbj0iMS4xIiB2aWV3Qm94PSIwIDAgMTAyNCAxMDI0IiBjbGFzcz0iaWNvbiI+PHBhdGggZmlsbD0iIzRBOTE5QiIgZD0iTTQ0Ni42ODA0MDcgNTEzLjcwNDcyNmgxMzYuMDc4NzM5djUxMC4yOTUyNzRoLTEzNi4wNzg3Mzl6Ii8+PHBhdGggZmlsbD0iIzRBOTE5QiIgZD0iTTUzMi40MTAwMTMgNjY2Ljc5MzMwOGgxMTUuNjY2OTI4djEzNi4wNzg3NEg1MzIuNDEwMDEzek01MzIuNDEwMDEzIDg0My42OTU2N2gxNDkuNjg2NjEzdjEzNi4wNzg3NEg1MzIuNDEwMDEzek01MTEuOTk4MjAyIDU4NS4xNDYwNjVBMjkwLjUyODEwOSAyOTAuNTI4MTA5IDAgMCAxIDIxOS40Mjg5MTIgMjkyLjU3Njc3NSAyOTAuNTI4MTA5IDI5MC41MjgxMDkgMCAwIDEgNTExLjk5ODIwMiAwLjAwNzQ4NGEyOTAuNTI4MTA5IDI5MC41MjgxMDkgMCAwIDEgMjkyLjU2OTI5IDI5Mi41NjkyOTEgMjkwLjUyODEwOSAyOTAuNTI4MTA5IDAgMCAxLTI5Mi41NjkyOSAyOTIuNTY5Mjl6IG0wLTQ0OS4wNTk4NDFBMTUzLjc2ODk3NiAxNTMuNzY4OTc2IDAgMCAwIDM1NS41MDc2NTEgMjkyLjU3Njc3NWExNTMuNzY4OTc2IDE1My43Njg5NzYgMCAwIDAgMTU2LjQ5MDU1MSAxNTYuNDkwNTUgMTUzLjc2ODk3NiAxNTMuNzY4OTc2IDAgMCAwIDE1Ni40OTA1NS0xNTYuNDkwNTVBMTUzLjc2ODk3NiAxNTMuNzY4OTc2IDAgMCAwIDUxMS45OTgyMDIgMTM2LjA4NjIyNHoiLz48L3N2Zz4=" vertex="1" parent="1">
          <mxGeometry x="396.2800000000001" y="499" width="55" height="55" as="geometry" />
        </mxCell>
        <mxCell id="4CuQxpmcvBkwadGIZDz--27" value="" style="shape=image;verticalLabelPosition=bottom;verticalAlign=top;imageAspect=0;aspect=fixed;image=data:image/svg+xml,PHN2ZyB4bWxuczp4bGluaz0iaHR0cDovL3d3dy53My5vcmcvMTk5OS94bGluayIgeG1sbnM9Imh0dHA6Ly93d3cudzMub3JnLzIwMDAvc3ZnIiBoZWlnaHQ9IjIwMCIgd2lkdGg9IjIwMCIgdmVyc2lvbj0iMS4xIiB2aWV3Qm94PSIwIDAgMTAyNCAxMDI0IiBjbGFzcz0iaWNvbiI+PHBhdGggZmlsbD0iIzUzNUU4MCIgZD0iTTQyMS4zNzYgNDgxLjI4czExNy4yNDggMjQuNTc2IDE3NS4xMDQtOC43MDRjMCAwLTg5LjYgNzAuMTQ0LTg5LjYgMTY2LjQgMC41MTItMC41MTItOC4xOTItMTIxLjM0NC04NS41MDQtMTU3LjY5NnpNNDM4Ljc4NCA5NjkuMjE2czY4LjYwOCA2LjY1NiA2OC42MDgtODAuODk2YzAgMCAzLjA3MiA4OC41NzYgNjUuMDI0IDc4LjMzNiAwIDAuNTEyLTUwLjY4OCAyMi4wMTYtMTMzLjYzMiAyLjU2ek0xNjEuMjggMjM4LjA4cy0zMC4yMDggNjUuNTM2IDExLjI2NCA5MS42NDhjMCAwLTY3LjA3Mi0xNy40MDgtODEuNDA4IDM3LjM3NiAwIDAgOC43MDQtODIuOTQ0IDcwLjE0NC0xMjkuMDI0ek04NTcuNiAyMjcuMzI4czQ5LjE1MiA1MC4xNzYgMS4wMjQgODEuNDA4YzAgMCA1OC44OC0xOC40MzIgNjYuNTYgMzYuMzUyIDAgMCA1LjEyLTY5LjYzMi02Ny41ODQtMTE3Ljc2eiIvPjxwYXRoIGZpbGw9IiM1MzVFODAiIGQ9Ik00NDMuMzkyIDk3MC43NTJjLTUuNjMyIDAtMTAuNzUyLTEuMDI0LTE1LjM2LTMuMDcybC0yNzAuODQ4LTE1Ny4xODQtMS41MzYtMS4wMjRzLTEuMDI0LTEuMDI0LTQuNjA4LTIuNTZjLTUxLjItMjkuMTg0LTYyLjk3Ni05NC4yMDgtNjUuNTM2LTEyMC44MzJWMzg2LjU2YzAtMy4wNzIgMC41MTItNy4xNjggMS4wMjQtMTEuMjY0bDAuNTEyLTMuNTg0IDEuMDI0LTIuNTZjMTkuNDU2LTUwLjY4OCA3Ni44LTUxLjIgMTAzLjkzNi00NC4wMzJsLTEuNTM2IDUuNjMyIDQuMDk2LTYuMTQ0TDQ3Ni4xNiA0ODYuNGwxOC45NDQgMzcuODg4YzIwLjk5MiAzNi44NjQgMjkuMTg0IDc3LjgyNCAzMi43NjggOTkuODR2MjU4LjA0OGMtNC42MDggNTYuMzItMzYuODY0IDc2LjI4OC01NS44MDggODIuOTQ0LTEuMDI0IDAuNTEyLTE1LjM2IDUuNjMyLTI4LjY3MiA1LjYzMnogbS0yNjIuMTQ0LTE5Ni4wOTZsMjYzLjE2OCAxNTIuNTc2YzEyLjI4OC0wLjUxMiAzNi44NjQtNi42NTYgNDAuNDQ4LTQ4LjEyOHYtMjUwLjM2OGMtNC42MDgtMzEuNzQ0LTIwLjk5Mi0xMDMuOTM2LTcyLjE5Mi0xMjhMMzIyLjU2IDQ0NS40NGwxLjUzNiAzLjA3Mi0xNDIuMzM2LTgyLjQzMmMtMi4wNDgtMC41MTItNDAuNDQ4LTkuMjE2LTUyLjczNiAxNS44NzItMC41MTIgMi41Ni0wLjUxMiA0LjYwOC0wLjUxMiA2LjE0NHYyOTQuNGMxLjUzNiAxNi44OTYgOS43MjggNjcuMDcyIDQzLjUyIDg2LjUyOCAzLjU4NCAyLjA0OCA2LjY1NiA0LjA5NiA5LjIxNiA1LjYzMnoiLz48cGF0aCBmaWxsPSIjNTM1RTgwIiBkPSJNODM3LjYzMiAyMTIuOTkyYzYuNjU2IDQuMDk2IDEyLjggNy4xNjggMTguNDMyIDEwLjc1MmwxLjUzNiAxLjAyNCAxLjUzNiAxLjUzNmM1LjEyIDQuMDk2IDEwLjc1MiA5LjIxNiAxNi4zODQgMTUuMzYgNi4xNDQgMTEuNzc2IDUuNjMyIDMzLjI4IDQuNjA4IDQ5LjE1Mi0xLjAyNCAxMi4yODgtNi42NTYgMzAuMjA4LTI2LjYyNCA0NC41NDRsLTEuMDI0IDAuNTEyLTI0Ny44MDggMTU2LjY3MmMtMjYuNjI0IDE0LjMzNi02Mi45NzYgMTguNDMyLTk2LjI1NiAxOC40MzItNDAuOTYgMC03Ny44MjQtNi42NTYtODkuMDg4LTguNzA0bC0zLjA3Mi0wLjUxMi0yNDUuMjQ4LTE0Mi4zMzZjLTM5LjQyNC0yOS42OTYtMjguMTYtODUuNTA0LTE1LjM2LTExMy42NjRsMi41Ni02LjE0NCAyNjMuNjgtMTY2LjkxMmMyOS4xODQtMTQuMzM2IDEwNC40NDgtNDMuMDA4IDE3My4wNTYtMS4wMjQgMy41ODQgMi41NiA1OC4zNjggMzQuMzA0IDExOS4yOTYgNjkuNjMyTTQzMS42MTYgNDYwLjhjNDAuNDQ4IDcuMTY4IDExNC4xNzYgMTMuODI0IDE1Mi41NzYtNi4xNDRsMjQ0LjczNi0xNTUuMTM2YzcuMTY4LTUuNjMyIDguMTkyLTEwLjI0IDguNzA0LTEyLjggMS4wMjQtMTEuMjY0LTkuNzI4LTI2LjYyNC0xNS4zNi0zMi43NjgtNTUuODA4LTMyLjI1Ni0yNDMuNzEyLTE0MS4zMTItMjUwLjM2OC0xNDUuNDA4LTQ5LjY2NC0zMC43Mi0xMDcuMDA4LTkuMjE2LTEzMC4wNDggMi41NkwxOTIuNTEyIDI2OC44Yy00LjA5NiAxMi4yODgtMTIuMjg4IDQyLjQ5NiAzLjU4NCA1NS44MDhsMjM1LjUyIDEzNi4xOTJ6Ii8+PHBhdGggZmlsbD0iIzUzNUU4MCIgZD0iTTgzMS40ODggMjk5LjAwOGM0LjA5Ni0xLjAyNCAzOC40LTExLjI2NCA2Ni4wNDggNi4xNDQgNy4xNjggNC42MDggMTcuOTIgMTEuNzc2IDI0LjA2NCAyNC41NzYgMS4wMjQgNS42MzIgNC4wOTYgMTAuNzUyIDQuNjA4IDE2Ljg5NnYyLjA0OGwtMS4wMjQgMzIzLjA3MmMtNS4xMiAzNS4zMjgtMjIuNTI4IDkxLjY0OC03Ny4zMTIgMTI1LjQ0bC01LjEyIDMuNTg0aC0xLjAyNGwtMjYyLjE0NCAxNjUuODg4LTQuNjA4IDAuNTEyYy00LjA5NiAwLjUxMi04LjcwNCAxLjAyNC0xMi44IDEuMDI0LTE1Ljg3MiAwLTMwLjIwOC01LjEyLTQxLjk4NC0xNC44NDgtMjQuNTc2LTIwLjQ4LTMyLjc2OC01NS44MDgtMzUuMzI4LTczLjcyOGwtMS4wMjQtMjUyLjkyOGgxLjUzNmM2LjE0NC05Ni43NjggODguNTc2LTE2NC44NjQgOTYuNzY4LTE3MS4wMDhsLTAuNTEyLTAuNTEyTDgyOS40NCAyOTkuNTJtLTMwMS4wNTYgNTY3LjgwOGMwLjUxMiAxMC4yNCA1LjEyIDQxLjQ3MiAxOS45NjggNTMuNzYgMy4wNzIgMi41NiA3LjY4IDUuNjMyIDE2LjM4NCA1LjEybDI2NC43MDQtMTY3LjkzNmM1Ni4zMi0zOC40IDUzLjc2LTExNS43MTIgNTMuNzYtMTE2LjIyNGwtMC41MTItMzIuMjU2IDEuMDI0LTI1MC4zNjhoLTAuNTEyYy0xLjUzNi0xMi44LTcuMTY4LTE2LjM4NC04LjcwNC0xNy40MDgtOC43MDQtNS42MzItMjMuNTUyLTMuMDcyLTI4LjY3Mi0yLjA0OGwtMjM1LjUyIDE0OC45OTJjLTEuMDI0IDAuNTEyLTgwLjg5NiA2NS4wMjQtODAuODk2IDE0OS41MDRoLTEuNTM2bDAuNTEyIDIyOC44NjR6TTQzNS4yIDI2NC4xOTJjMCAyNy42NDggMzEuNzQ0IDUwLjE3NiA3MS4xNjggNTAuMTc2czcxLjE2OC0yMi41MjggNzEuMTY4LTUwLjE3Ni0zMS43NDQtNTAuMTc2LTcxLjE2OC01MC4xNzZTNDM1LjIgMjM2LjU0NCA0MzUuMiAyNjQuMTkyeiIvPjxwYXRoIGZpbGw9IiM1MzVFODAiIGQ9Ik02NjMuNTUyIDc4Mi44NDhjMCAzMC43Mi0yMi41MjggNjcuMDcyLTQ5LjY2NCA4MC4zODQtMjcuNjQ4IDEzLjgyNC01MC4xNzYtMC41MTItNTAuMTc2LTMxLjIzMnMyMi41MjgtNjcuMDcyIDUwLjE3Ni04MC4zODRjMjcuMTM2LTEzLjgyNCA0OS42NjQgMCA0OS42NjQgMzEuMjMyek03NjAuMzIgNjAyLjYyNGMwIDMwLjcyLTIyLjUyOCA2Ny4wNzItNDkuNjY0IDgwLjM4NC0yNy42NDggMTMuODI0LTQ5LjY2NC0wLjUxMi00OS42NjQtMzEuMjMyczIyLjUyOC02Ny4wNzIgNDkuNjY0LTgwLjM4NGMyNy4xMzYtMTMuODI0IDQ5LjY2NCAwLjUxMiA0OS42NjQgMzEuMjMyek04NjcuODQgNDI4LjAzMmMwIDMwLjcyLTIyLjUyOCA2Ny4wNzItNDkuNjY0IDgwLjM4NC0yNy42NDggMTMuODI0LTUwLjE3Ni0wLjUxMi01MC4xNzYtMzEuMjMyczIyLjUyOC02Ny4wNzIgNTAuMTc2LTgwLjM4NGMyNy4xMzYtMTMuODI0IDQ5LjY2NCAwIDQ5LjY2NCAzMS4yMzJ6TTI3MC44NDggNTM4LjExMmMwIDMwLjcyLTIyLjAxNiA0MS45ODQtNDguNjQgMjQuNTc2LTI3LjEzNi0xNi44OTYtNDguNjQtNTUuODA4LTQ4LjY0LTg2LjUyOCAwLTMwLjcyIDIyLjAxNi00MS45ODQgNDguNjQtMjQuNTc2IDI2LjYyNCAxNi44OTYgNDguNjQgNTUuODA4IDQ4LjY0IDg2LjUyOHpNNDMyLjEyOCA4MjMuMjk2YzAgMzAuNzItMjIuMDE2IDQxLjk4NC00OC42NCAyNC41NzYtMjYuNjI0LTE3LjQwOC00OC42NC01NS44MDgtNDguNjQtODYuNTI4IDAtMzAuNzIgMjIuMDE2LTQxLjk4NCA0OC42NC0yNC41NzYgMjYuNjI0IDE2Ljg5NiA0OC42NCA1NS44MDggNDguNjQgODYuNTI4eiIvPjwvc3ZnPg==" vertex="1" parent="1">
          <mxGeometry x="160.5" y="503" width="56" height="56" as="geometry" />
        </mxCell>
        <mxCell id="4CuQxpmcvBkwadGIZDz--28" value="&lt;font color=&quot;#535e80&quot; style=&quot;font-size: 21px;&quot;&gt;随机串&lt;/font&gt;" style="text;html=1;strokeColor=none;fillColor=none;align=center;verticalAlign=middle;whiteSpace=wrap;rounded=0;fontColor=#4A919B;" vertex="1" parent="1">
          <mxGeometry x="374" y="727.0800000000002" width="117" height="29" as="geometry" />
        </mxCell>
        <mxCell id="4CuQxpmcvBkwadGIZDz--29" value="" style="shape=image;verticalLabelPosition=bottom;verticalAlign=top;imageAspect=0;aspect=fixed;image=data:image/svg+xml,PHN2ZyB4bWxuczp4bGluaz0iaHR0cDovL3d3dy53My5vcmcvMTk5OS94bGluayIgeG1sbnM9Imh0dHA6Ly93d3cudzMub3JnLzIwMDAvc3ZnIiBoZWlnaHQ9IjIwMCIgd2lkdGg9IjIwMCIgdmVyc2lvbj0iMS4xIiB2aWV3Qm94PSIwIDAgMTAyNCAxMDI0IiBjbGFzcz0iaWNvbiI+PHBhdGggZmlsbD0iIzUzNUU4MCIgZD0iTTQyMS4zNzYgNDgxLjI4czExNy4yNDggMjQuNTc2IDE3NS4xMDQtOC43MDRjMCAwLTg5LjYgNzAuMTQ0LTg5LjYgMTY2LjQgMC41MTItMC41MTItOC4xOTItMTIxLjM0NC04NS41MDQtMTU3LjY5NnpNNDM4Ljc4NCA5NjkuMjE2czY4LjYwOCA2LjY1NiA2OC42MDgtODAuODk2YzAgMCAzLjA3MiA4OC41NzYgNjUuMDI0IDc4LjMzNiAwIDAuNTEyLTUwLjY4OCAyMi4wMTYtMTMzLjYzMiAyLjU2ek0xNjEuMjggMjM4LjA4cy0zMC4yMDggNjUuNTM2IDExLjI2NCA5MS42NDhjMCAwLTY3LjA3Mi0xNy40MDgtODEuNDA4IDM3LjM3NiAwIDAgOC43MDQtODIuOTQ0IDcwLjE0NC0xMjkuMDI0ek04NTcuNiAyMjcuMzI4czQ5LjE1MiA1MC4xNzYgMS4wMjQgODEuNDA4YzAgMCA1OC44OC0xOC40MzIgNjYuNTYgMzYuMzUyIDAgMCA1LjEyLTY5LjYzMi02Ny41ODQtMTE3Ljc2eiIvPjxwYXRoIGZpbGw9IiM1MzVFODAiIGQ9Ik00NDMuMzkyIDk3MC43NTJjLTUuNjMyIDAtMTAuNzUyLTEuMDI0LTE1LjM2LTMuMDcybC0yNzAuODQ4LTE1Ny4xODQtMS41MzYtMS4wMjRzLTEuMDI0LTEuMDI0LTQuNjA4LTIuNTZjLTUxLjItMjkuMTg0LTYyLjk3Ni05NC4yMDgtNjUuNTM2LTEyMC44MzJWMzg2LjU2YzAtMy4wNzIgMC41MTItNy4xNjggMS4wMjQtMTEuMjY0bDAuNTEyLTMuNTg0IDEuMDI0LTIuNTZjMTkuNDU2LTUwLjY4OCA3Ni44LTUxLjIgMTAzLjkzNi00NC4wMzJsLTEuNTM2IDUuNjMyIDQuMDk2LTYuMTQ0TDQ3Ni4xNiA0ODYuNGwxOC45NDQgMzcuODg4YzIwLjk5MiAzNi44NjQgMjkuMTg0IDc3LjgyNCAzMi43NjggOTkuODR2MjU4LjA0OGMtNC42MDggNTYuMzItMzYuODY0IDc2LjI4OC01NS44MDggODIuOTQ0LTEuMDI0IDAuNTEyLTE1LjM2IDUuNjMyLTI4LjY3MiA1LjYzMnogbS0yNjIuMTQ0LTE5Ni4wOTZsMjYzLjE2OCAxNTIuNTc2YzEyLjI4OC0wLjUxMiAzNi44NjQtNi42NTYgNDAuNDQ4LTQ4LjEyOHYtMjUwLjM2OGMtNC42MDgtMzEuNzQ0LTIwLjk5Mi0xMDMuOTM2LTcyLjE5Mi0xMjhMMzIyLjU2IDQ0NS40NGwxLjUzNiAzLjA3Mi0xNDIuMzM2LTgyLjQzMmMtMi4wNDgtMC41MTItNDAuNDQ4LTkuMjE2LTUyLjczNiAxNS44NzItMC41MTIgMi41Ni0wLjUxMiA0LjYwOC0wLjUxMiA2LjE0NHYyOTQuNGMxLjUzNiAxNi44OTYgOS43MjggNjcuMDcyIDQzLjUyIDg2LjUyOCAzLjU4NCAyLjA0OCA2LjY1NiA0LjA5NiA5LjIxNiA1LjYzMnoiLz48cGF0aCBmaWxsPSIjNTM1RTgwIiBkPSJNODM3LjYzMiAyMTIuOTkyYzYuNjU2IDQuMDk2IDEyLjggNy4xNjggMTguNDMyIDEwLjc1MmwxLjUzNiAxLjAyNCAxLjUzNiAxLjUzNmM1LjEyIDQuMDk2IDEwLjc1MiA5LjIxNiAxNi4zODQgMTUuMzYgNi4xNDQgMTEuNzc2IDUuNjMyIDMzLjI4IDQuNjA4IDQ5LjE1Mi0xLjAyNCAxMi4yODgtNi42NTYgMzAuMjA4LTI2LjYyNCA0NC41NDRsLTEuMDI0IDAuNTEyLTI0Ny44MDggMTU2LjY3MmMtMjYuNjI0IDE0LjMzNi02Mi45NzYgMTguNDMyLTk2LjI1NiAxOC40MzItNDAuOTYgMC03Ny44MjQtNi42NTYtODkuMDg4LTguNzA0bC0zLjA3Mi0wLjUxMi0yNDUuMjQ4LTE0Mi4zMzZjLTM5LjQyNC0yOS42OTYtMjguMTYtODUuNTA0LTE1LjM2LTExMy42NjRsMi41Ni02LjE0NCAyNjMuNjgtMTY2LjkxMmMyOS4xODQtMTQuMzM2IDEwNC40NDgtNDMuMDA4IDE3My4wNTYtMS4wMjQgMy41ODQgMi41NiA1OC4zNjggMzQuMzA0IDExOS4yOTYgNjkuNjMyTTQzMS42MTYgNDYwLjhjNDAuNDQ4IDcuMTY4IDExNC4xNzYgMTMuODI0IDE1Mi41NzYtNi4xNDRsMjQ0LjczNi0xNTUuMTM2YzcuMTY4LTUuNjMyIDguMTkyLTEwLjI0IDguNzA0LTEyLjggMS4wMjQtMTEuMjY0LTkuNzI4LTI2LjYyNC0xNS4zNi0zMi43NjgtNTUuODA4LTMyLjI1Ni0yNDMuNzEyLTE0MS4zMTItMjUwLjM2OC0xNDUuNDA4LTQ5LjY2NC0zMC43Mi0xMDcuMDA4LTkuMjE2LTEzMC4wNDggMi41NkwxOTIuNTEyIDI2OC44Yy00LjA5NiAxMi4yODgtMTIuMjg4IDQyLjQ5NiAzLjU4NCA1NS44MDhsMjM1LjUyIDEzNi4xOTJ6Ii8+PHBhdGggZmlsbD0iIzUzNUU4MCIgZD0iTTgzMS40ODggMjk5LjAwOGM0LjA5Ni0xLjAyNCAzOC40LTExLjI2NCA2Ni4wNDggNi4xNDQgNy4xNjggNC42MDggMTcuOTIgMTEuNzc2IDI0LjA2NCAyNC41NzYgMS4wMjQgNS42MzIgNC4wOTYgMTAuNzUyIDQuNjA4IDE2Ljg5NnYyLjA0OGwtMS4wMjQgMzIzLjA3MmMtNS4xMiAzNS4zMjgtMjIuNTI4IDkxLjY0OC03Ny4zMTIgMTI1LjQ0bC01LjEyIDMuNTg0aC0xLjAyNGwtMjYyLjE0NCAxNjUuODg4LTQuNjA4IDAuNTEyYy00LjA5NiAwLjUxMi04LjcwNCAxLjAyNC0xMi44IDEuMDI0LTE1Ljg3MiAwLTMwLjIwOC01LjEyLTQxLjk4NC0xNC44NDgtMjQuNTc2LTIwLjQ4LTMyLjc2OC01NS44MDgtMzUuMzI4LTczLjcyOGwtMS4wMjQtMjUyLjkyOGgxLjUzNmM2LjE0NC05Ni43NjggODguNTc2LTE2NC44NjQgOTYuNzY4LTE3MS4wMDhsLTAuNTEyLTAuNTEyTDgyOS40NCAyOTkuNTJtLTMwMS4wNTYgNTY3LjgwOGMwLjUxMiAxMC4yNCA1LjEyIDQxLjQ3MiAxOS45NjggNTMuNzYgMy4wNzIgMi41NiA3LjY4IDUuNjMyIDE2LjM4NCA1LjEybDI2NC43MDQtMTY3LjkzNmM1Ni4zMi0zOC40IDUzLjc2LTExNS43MTIgNTMuNzYtMTE2LjIyNGwtMC41MTItMzIuMjU2IDEuMDI0LTI1MC4zNjhoLTAuNTEyYy0xLjUzNi0xMi44LTcuMTY4LTE2LjM4NC04LjcwNC0xNy40MDgtOC43MDQtNS42MzItMjMuNTUyLTMuMDcyLTI4LjY3Mi0yLjA0OGwtMjM1LjUyIDE0OC45OTJjLTEuMDI0IDAuNTEyLTgwLjg5NiA2NS4wMjQtODAuODk2IDE0OS41MDRoLTEuNTM2bDAuNTEyIDIyOC44NjR6TTQzNS4yIDI2NC4xOTJjMCAyNy42NDggMzEuNzQ0IDUwLjE3NiA3MS4xNjggNTAuMTc2czcxLjE2OC0yMi41MjggNzEuMTY4LTUwLjE3Ni0zMS43NDQtNTAuMTc2LTcxLjE2OC01MC4xNzZTNDM1LjIgMjM2LjU0NCA0MzUuMiAyNjQuMTkyeiIvPjxwYXRoIGZpbGw9IiM1MzVFODAiIGQ9Ik02NjMuNTUyIDc4Mi44NDhjMCAzMC43Mi0yMi41MjggNjcuMDcyLTQ5LjY2NCA4MC4zODQtMjcuNjQ4IDEzLjgyNC01MC4xNzYtMC41MTItNTAuMTc2LTMxLjIzMnMyMi41MjgtNjcuMDcyIDUwLjE3Ni04MC4zODRjMjcuMTM2LTEzLjgyNCA0OS42NjQgMCA0OS42NjQgMzEuMjMyek03NjAuMzIgNjAyLjYyNGMwIDMwLjcyLTIyLjUyOCA2Ny4wNzItNDkuNjY0IDgwLjM4NC0yNy42NDggMTMuODI0LTQ5LjY2NC0wLjUxMi00OS42NjQtMzEuMjMyczIyLjUyOC02Ny4wNzIgNDkuNjY0LTgwLjM4NGMyNy4xMzYtMTMuODI0IDQ5LjY2NCAwLjUxMiA0OS42NjQgMzEuMjMyek04NjcuODQgNDI4LjAzMmMwIDMwLjcyLTIyLjUyOCA2Ny4wNzItNDkuNjY0IDgwLjM4NC0yNy42NDggMTMuODI0LTUwLjE3Ni0wLjUxMi01MC4xNzYtMzEuMjMyczIyLjUyOC02Ny4wNzIgNTAuMTc2LTgwLjM4NGMyNy4xMzYtMTMuODI0IDQ5LjY2NCAwIDQ5LjY2NCAzMS4yMzJ6TTI3MC44NDggNTM4LjExMmMwIDMwLjcyLTIyLjAxNiA0MS45ODQtNDguNjQgMjQuNTc2LTI3LjEzNi0xNi44OTYtNDguNjQtNTUuODA4LTQ4LjY0LTg2LjUyOCAwLTMwLjcyIDIyLjAxNi00MS45ODQgNDguNjQtMjQuNTc2IDI2LjYyNCAxNi44OTYgNDguNjQgNTUuODA4IDQ4LjY0IDg2LjUyOHpNNDMyLjEyOCA4MjMuMjk2YzAgMzAuNzItMjIuMDE2IDQxLjk4NC00OC42NCAyNC41NzYtMjYuNjI0LTE3LjQwOC00OC42NC01NS44MDgtNDguNjQtODYuNTI4IDAtMzAuNzIgMjIuMDE2LTQxLjk4NCA0OC42NC0yNC41NzYgMjYuNjI0IDE2Ljg5NiA0OC42NCA1NS44MDggNDguNjQgODYuNTI4eiIvPjwvc3ZnPg==" vertex="1" parent="1">
          <mxGeometry x="404.5" y="671.08" width="56" height="56" as="geometry" />
        </mxCell>
        <mxCell id="4CuQxpmcvBkwadGIZDz--30" value="" style="shape=flexArrow;endArrow=classic;html=1;rounded=1;fontSize=28;fontColor=#808080;width=9.18032786885246;endSize=4.6;strokeColor=none;fillColor=#515E83;" edge="1" parent="1">
          <mxGeometry width="50" height="50" relative="1" as="geometry">
            <mxPoint x="900" y="727.08" as="sourcePoint" />
            <mxPoint x="940" y="785.08" as="targetPoint" />
            <Array as="points">
              <mxPoint x="940" y="727.08" />
            </Array>
          </mxGeometry>
        </mxCell>
        <mxCell id="4CuQxpmcvBkwadGIZDz--31" value="" style="shape=image;verticalLabelPosition=bottom;labelBackgroundColor=default;verticalAlign=top;aspect=fixed;imageAspect=0;image=data:image/svg+xml,PHN2ZyB4bWxuczp4bGluaz0iaHR0cDovL3d3dy53My5vcmcvMTk5OS94bGluayIgeG1sbnM9Imh0dHA6Ly93d3cudzMub3JnLzIwMDAvc3ZnIiBoZWlnaHQ9IjEyOCIgd2lkdGg9IjEyOCIgdmVyc2lvbj0iMS4xIiB2aWV3Qm94PSIwIDAgMTAyNCAxMDI0IiBjbGFzcz0iaWNvbiI+PHBhdGggZmlsbD0iIzUzNUU4MCIgZD0iTTUxMiAxMDI0Yy00LjI2NjY2NyAwLTguNTMzMzMzIDAtMTIuOC00LjI2NjY2N0MyMTMuMzMzMzMzIDkyNS44NjY2NjcgNDIuNjY2NjY3IDcwOC4yNjY2NjcgNDIuNjY2NjY3IDQzMC45MzMzMzNWMTcwLjY2NjY2N2MwLTE3LjA2NjY2NyAxMi44LTM0LjEzMzMzMyAyOS44NjY2NjYtNDIuNjY2NjY3bDQyNi42NjY2NjctMTI4aDI1LjZsNDI2LjY2NjY2NyAxMjhjMTcuMDY2NjY3IDguNTMzMzMzIDI5Ljg2NjY2NyAyNS42IDI5Ljg2NjY2NiA0Mi42NjY2Njd2MjYwLjI2NjY2NmMwIDI3My4wNjY2NjctMTcwLjY2NjY2NyA0OTQuOTMzMzMzLTQ1Ni41MzMzMzMgNTg4LjgtNC4yNjY2NjcgNC4yNjY2NjctOC41MzMzMzMgNC4yNjY2NjctMTIuOCA0LjI2NjY2N3pNMTI4IDIwMC41MzMzMzN2MjMwLjRjMCAyMzQuNjY2NjY3IDE0MC44IDQxOC4xMzMzMzMgMzg0IDUwMy40NjY2NjcgMjQzLjItODUuMzMzMzMzIDM4NC0yNjguOCAzODQtNTAzLjQ2NjY2N1YyMDAuNTMzMzMzTDUxMiA4NS4zMzMzMzMgMTI4IDIwMC41MzMzMzN6Ii8+PHBhdGggZmlsbD0iIzUzNUU4MCIgZD0iTTQ2OS4zMzMzMzMgNjgyLjY2NjY2N2MtMTIuOCAwLTIxLjMzMzMzMy00LjI2NjY2Ny0yOS44NjY2NjYtMTIuOGwtMTI4LTEyOGMtMTcuMDY2NjY3LTE3LjA2NjY2Ny0xNy4wNjY2NjctNDIuNjY2NjY3IDAtNTkuNzMzMzM0czQyLjY2NjY2Ny0xNy4wNjY2NjcgNTkuNzMzMzMzIDBsOTguMTMzMzMzIDk4LjEzMzMzNCAyMjYuMTMzMzM0LTIyNi4xMzMzMzRjMTcuMDY2NjY3LTE3LjA2NjY2NyA0Mi42NjY2NjctMTcuMDY2NjY3IDU5LjczMzMzMyAwczE3LjA2NjY2NyA0Mi42NjY2NjcgMCA1OS43MzMzMzRsLTI1NiAyNTZjLTguNTMzMzMzIDguNTMzMzMzLTE3LjA2NjY2NyAxMi44LTI5Ljg2NjY2NyAxMi44eiIvPjwvc3ZnPg==;" vertex="1" parent="1">
          <mxGeometry x="918.21" y="828.58" width="48" height="48" as="geometry" />
        </mxCell>
        <mxCell id="4CuQxpmcvBkwadGIZDz--33" value="&lt;font style=&quot;font-size: 24px;&quot;&gt;&lt;font color=&quot;#515e83&quot;&gt;3.客户端公钥加密服务端生成的随机串&lt;br&gt;并发给客户端&lt;/font&gt;&lt;br&gt;&lt;/font&gt;" style="text;html=1;strokeColor=none;fillColor=none;align=center;verticalAlign=middle;whiteSpace=wrap;rounded=0;fontSize=28;fontColor=#808080;" vertex="1" parent="1">
          <mxGeometry x="967.31" y="485.58" width="235.13" height="102" as="geometry" />
        </mxCell>
        <mxCell id="4CuQxpmcvBkwadGIZDz--34" value="&lt;font style=&quot;font-size: 24px;&quot;&gt;&lt;font color=&quot;#4a919b&quot;&gt;4.客户端私钥解密&lt;br&gt;还原随机串&lt;/font&gt;&lt;br&gt;&lt;/font&gt;" style="text;html=1;strokeColor=none;fillColor=none;align=center;verticalAlign=middle;whiteSpace=wrap;rounded=0;fontSize=28;fontColor=#808080;" vertex="1" parent="1">
          <mxGeometry x="17" y="595" width="235.13" height="102" as="geometry" />
        </mxCell>
      </root>
    </mxGraphModel>
  </diagram>
</mxfile>
